<?xml version="1.0" encoding="UTF-8" standalone="no"?>
<!-- Created with Inkscape (http://www.inkscape.org/) -->

<svg
   width="218.03851mm"
   height="66.348129mm"
   viewBox="0 0 218.03851 66.348129"
   version="1.1"
   id="svg5"
   inkscape:version="1.1.2 (0a00cf5339, 2022-02-04)"
   sodipodi:docname="dibujo.svg"
   xmlns:inkscape="http://www.inkscape.org/namespaces/inkscape"
   xmlns:sodipodi="http://sodipodi.sourceforge.net/DTD/sodipodi-0.dtd"
   xmlns="http://www.w3.org/2000/svg"
   xmlns:svg="http://www.w3.org/2000/svg">
  <sodipodi:namedview
     id="namedview7"
     pagecolor="#ffffff"
     bordercolor="#666666"
     borderopacity="1.0"
     inkscape:pageshadow="2"
     inkscape:pageopacity="0.0"
     inkscape:pagecheckerboard="0"
     inkscape:document-units="mm"
     showgrid="false"
     inkscape:lockguides="true"
     showguides="false"
     inkscape:zoom="0.46947952"
     inkscape:cx="509.07439"
     inkscape:cy="-90.525781"
     inkscape:window-width="1366"
     inkscape:window-height="708"
     inkscape:window-x="0"
     inkscape:window-y="0"
     inkscape:window-maximized="1"
     inkscape:current-layer="layer1" />
  <defs
     id="defs2" />
  <g
     inkscape:label="Capa 1"
     inkscape:groupmode="layer"
     id="layer1"
     transform="translate(0.74496966,-21.451717)">
    <g
       id="g34586"
       inkscape:label="arriba"
       transform="matrix(0.25582184,0,0,0.19586829,83.333254,101.43193)">
      <path
         id="rect858"
         style="fill:#ffffff;fill-opacity:1;stroke:#005128;stroke-width:0.396875;stroke-linecap:round;stroke-linejoin:round;paint-order:stroke fill markers"
         d="m -328.46085,-405.05937 h 851.75647 l 0.15277,59.40667 -3.54364,-1.19262 -3.33151,2.26914 c 0,0 -0.60449,-2.05537 -2.60224,-3.61919 -1.33977,-1.04875 -3.82946,-0.45804 -5.54238,-1.28265 -1.64769,-0.7932 -3.06163,-4.47307 -4.07474,-4.90962 l -2.23685,6.92191 -1.91722,-0.62226 -4.31488,6.79627 -1.04785,0.24539 -2.13283,9.12044 -2.51136,5.73097 c 0,0 -0.78699,-1.02734 -1.79787,-0.57646 -1.01088,0.45088 -2.15963,9.81821 -2.15963,9.81821 0,0 -0.78202,-0.96666 -3.10288,0.88025 -0.51701,0.41143 -2.49076,2.80601 -4.6948,5.80701 -0.33779,0.45993 -0.39565,-1.62482 -2.01262,-0.16079 -0.65648,0.59439 -0.96698,6.45519 -2.89911,8.98529 -0.39042,0.51125 -2.02828,0.16215 -4.55796,1.96094 -0.24191,0.17202 -0.79554,0.61201 -1.15996,0.95582 0,0 -0.98054,-0.45338 -1.45314,-0.30612 -2.93699,0.91515 -4.39807,4.44151 -7.22294,7.41084 -0.44395,0.46666 -0.32624,-1.55117 -1.83575,-0.99761 -2.56701,0.94135 -3.582,6.68577 -5.58176,6.82185 -2.43342,0.16559 -3.52381,-8.87861 -6.81342,-8.88936 -1.43443,-0.005 -4.8094,6.88182 -4.8094,6.88182 0,0 -0.53014,-7.05797 -4.47327,-7.57604 -1.74027,-0.22865 -4.22718,6.2114 -4.22718,6.2114 0,0 -0.92556,-2.12388 -2.56312,-1.9623 -1.63756,0.16158 -4.38508,4.99278 -4.38508,4.99278 l -2.53503,11.91348 c 0,0 0.15747,3.41453 -1.70477,3.52527 -0.49719,0.0296 -1.56867,-4.03406 -1.56867,-4.03406 l -4.09574,5.72243 -2.94223,7.38002 -1.75344,6.5991 -2.33745,4.40556 -1.53397,7.02006 0.0557,8.41158 c 0,0 -1.60812,4.25452 -3.22978,4.19957 -1.62165,-0.055 -2.46098,-3.69269 -2.46098,-3.69269 l -3.78992,9.35254 -1.92401,-0.0145 c 0,0 -2.84639,2.73997 -4.89593,3.17974 -1.55123,0.33284 -1.15263,-1.54215 -3.02408,-1.32254 -0.68341,0.0802 -4.31517,5.91652 -5.89409,6.1726 -0.57163,0.0927 -1.97318,-2.06766 -1.97318,-2.06766 0,0 -0.52167,1.2317 -1.47999,1.5696 -0.95832,0.3379 -2.35488,-1.92441 -3.99293,-1.3564 -0.8508,0.29503 -1.78072,5.7263 -3.95828,9.56026 -2.01494,3.54764 -4.04522,3.54121 -4.69584,6.67041 l -1.54596,-1.11981 -1.64464,2.41967 -1.62436,8.22504 -1.33818,0.87758 c 0,0 -2.01869,5.56383 -3.37963,5.83351 -1.36094,0.26967 -1.25561,-0.96341 -1.25561,-0.96341 0,0 -0.42392,4.54924 -1.81164,5.91455 -0.71334,0.70182 -2.20701,-5.44748 -3.37489,-5.24111 -1.10409,0.19509 -0.95042,5.59809 -2.35822,5.87696 -1.55558,0.30815 -0.98574,-3.77032 -3.53932,-6.30181 -0.44511,-0.44126 -4.6923,-1.59992 -6.35576,-4.14201 -0.43415,-0.66346 -1.22189,-5.58794 -3.07393,-8.12958 -0.35042,-0.4809 -1.92269,1.07298 -3.43423,0.57318 -0.39985,-0.13222 -1.58094,-4.65781 -1.58094,-4.65781 l -1.19888,-1.09517 -3.76946,-13.02747 c 0,0 -1.16037,4.90453 -2.61182,4.63473 -0.78702,-0.14629 -0.8991,-2.67846 -1.65131,-4.52657 -0.63504,-1.56026 -1.9819,-2.49504 -1.9819,-2.49504 l 0.0823,5.02744 -0.85217,4.80474 c 0,0 0.004,-1.66397 -2.23173,-1.78814 -1.11121,-0.0617 -2.9974,8.1629 -4.15494,8.95602 -1.00172,0.68635 -1.4224,5.46293 -1.12965,5.68248 l -1.90481,4.71711 c 0,0 -0.49757,-1.08456 -1.87515,-0.81971 -1.37757,0.26484 -4.47473,4.5341 -4.47473,4.5341 0,0 -3.1702,-10.21994 -4.916,-10.13294 -1.74581,0.087 -3.12665,4.4269 -3.12665,4.4269 0,0 -1.03472,-11.31338 -2.53247,-11.21772 -1.0825,0.0692 -1.36409,-11.33623 -1.36409,-11.33623 l -0.6347,7.4932 -0.95376,-0.67536 c 0,0 0.064,6.07804 -1.46225,5.90648 -1.52627,-0.17156 -1.945,-10.6593 -1.945,-10.6593 l -0.78959,-1.20031 -0.87232,4.76712 -2.76985,3.07391 -0.37767,-0.92961 c 0,0 -1.34644,4.1056 -2.22409,4.74445 -0.87766,0.63886 -0.0683,2.65588 -0.99227,3.38095 -0.59074,0.46357 -1.39445,-0.96669 -1.39445,-0.96669 0,0 -0.41044,1.2749 -1.37886,1.67627 -0.49656,0.20581 -1.16631,-1.73186 -1.16631,-1.73186 0,0 -0.56401,1.49951 -1.38283,1.92452 -0.81882,0.42501 -2.74106,-0.37797 -2.74106,-0.37797 0,0 -0.8916,4.57372 -2.21694,4.47869 -0.81042,-0.0581 -1.60767,-6.60354 -2.72443,-11.5547 -0.70956,-3.14583 -2.02358,-5.55127 -2.02358,-5.55127 l -0.80894,2.66918 -0.82819,-0.75641 c 0,0 -0.33109,2.37859 -1.46241,2.47295 -0.26489,0.0221 -0.96925,-4.43548 -0.96925,-4.43548 0,0 -0.81723,1.71295 -1.65803,1.58907 -0.84079,-0.12389 -1.37811,-2.44044 -1.37811,-2.44044 0,0 -1.00131,0.11889 -2.1017,-0.62258 -1.43619,-0.96774 -3.10604,-2.83614 -3.59833,-2.60535 -0.3029,0.14201 -1.39256,-1.4134 -2.82925,-2.70485 -0.74715,-0.67162 -0.71848,1.41392 -1.45821,1.24232 -0.90708,-0.21042 -1.08161,-4.37208 -2.29743,-4.62316 -0.29067,-0.06 -1.33551,4.3172 -1.33551,4.3172 0,0 -0.3591,-3.51411 -1.37571,-3.44963 -0.41238,0.0262 -2.79631,5.08947 -4.18548,4.99643 -0.43203,-0.0289 -0.31588,-3.31966 -1.30478,-3.3549 -0.33473,-0.0119 -0.54601,3.55424 -1.75036,3.4498 -0.39101,-0.0339 -0.21908,-2.75371 -1.05874,-2.56925 -0.91817,0.20171 -1.56179,4.73812 -1.56179,4.73812 l -0.66571,-0.55119 -0.78968,0.27022 -0.74247,-1.83437 c 0,0 -1.46085,-0.0614 -2.30714,-0.80035 -0.84629,-0.73895 -2.38375,-1.75885 -2.38375,-1.75885 0,0 -0.5224,-1.76943 -1.84565,-1.79228 -0.47943,-0.008 -1.94267,2.47775 -3.48575,3.5979 -1.28802,0.935 -2.7048,0.48832 -2.96175,0.90025 -0.61446,0.98505 -1.12822,3.29359 -1.12822,3.29359 l -2.16753,-4.23022 c 0,0 -0.62843,0.97657 -2.01079,1.06829 -0.60731,0.0403 -0.69792,-0.80073 -1.81406,-1.26299 -0.63021,-0.26101 -0.50096,1.06981 -1.22487,0.93416 -0.91231,-0.17095 -2.87122,-2.33171 -2.87122,-2.33171 0,0 0.0102,5.45583 -2.26394,5.9675 -2.27409,0.51167 -2.69401,-3.50298 -4.97942,-4.09494 -2.2854,-0.59196 -1.84904,2.57939 -4.71734,2.72384 -0.93617,0.0471 -2.4119,-2.16984 -2.4119,-2.16984 0,0 -1.08009,2.05021 -2.40001,2.06001 -1.31992,0.01 -3.76777,-4.3044 -3.76777,-4.3044 l 0.31416,-1.64805 -1.60966,0.54738 -3.91774,-0.0907 c 0,0 -0.1608,-1.19954 -2.23968,-1.20853 -2.07888,-0.009 -7.25326,5.88107 -7.25326,5.88107 l -1.43577,-2.98912 c 0,0 -0.52988,-3.88165 -1.37419,-4.06264 -0.40749,-0.0874 -1.488,2.06844 -2.81184,1.78516 -0.80755,-0.17281 -0.41483,-0.9628 -1.05305,-0.87199 -0.56774,0.0808 -2.34098,1.93523 -2.34098,1.93523 l -2.48735,2.43503 c 0,0 -2.63616,14.24405 -4.97694,14.02785 -2.34077,-0.2162 0.19319,-5.51137 -1.27588,-5.8084 -1.2065,-0.24394 -2.52561,3.97104 -3.97952,5.27501 -0.39908,0.35792 -5.0054,2.97822 -5.0054,2.97822 0,0 -1.96989,-0.52061 -4.76461,2.28241 -1.11045,1.11375 -3.22764,7.05788 -3.22764,7.05788 l -3.13486,1.46971 c 0,0 -0.26907,5.25717 -2.95942,8.0336 -1.68697,1.74094 -7.15943,0.40147 -7.15943,0.40147 0,0 -0.35744,1.91137 -1.31606,2.06984 -0.20612,0.0341 -1.29664,-1.79166 -2.48214,-1.43662 -0.28708,0.086 -0.52165,2.13416 -1.3246,2.50319 -0.20391,0.0937 -1.13958,-0.19754 -1.93611,0.37427 -0.29419,0.21119 -1.57519,4.18281 -1.57519,4.18281 l -1.72409,-0.60697 -3.69364,2.7256 -1.96187,-1.58595 c 0,0 -0.58798,1.80766 -1.559,2.06649 -0.97103,0.25883 -1.799253,-1.52181 -3.164657,-1.35099 -1.365404,0.17082 -0.849564,3.76723 -2.491041,3.99466 -1.641478,0.22744 -1.990706,-3.75844 -3.805412,-3.50454 -1.206586,0.16882 -1.970778,7.12413 -2.213666,10.11778 -0.242889,2.99364 -5.347506,6.91642 -6.783932,8.86239 -0.610128,0.82656 -2.144086,1.13071 -3.348688,2.87035 -1.631387,2.35599 -2.918473,6.13896 -2.918473,6.13896 l -0.860917,-0.51953 c 0,0 -2.80041,15.19293 -4.09716,15.50518 -0.648,0.15603 -1.628863,-4.6514 -1.628863,-4.6514 0,0 -2.199912,-0.40978 -3.791489,1.65987 -0.660938,0.85947 -3.220647,7.87646 -3.220647,7.87646 0,0 -4.395519,10.65872 -5.562205,10.61546 -1.166685,-0.0433 -2.064657,-3.20383 -2.064657,-3.20383 0,0 -3.280441,7.80934 -5.042534,7.58761 -1.456057,-0.18322 -3.329485,-4.62656 -3.329485,-4.62656 l -1.323585,3.4013 -0.908441,-7.06388 -0.444225,-7.03836 c 0,0 -0.771285,-2.1258 -3.028648,-2.62189 -1.790645,-0.39351 -4.796734,2.2199 -4.796734,2.2199 0,0 -0.369001,2.79685 -1.499096,2.7654 -1.519443,-0.0423 -3.586315,-11.03699 -4.697135,-11.05883 -1.110821,-0.0218 -1.020384,2.5837 -1.020384,2.5837 0,0 -1.526174,-6.20717 -2.834603,-6.48864 -0.259206,-0.0558 -3.189202,0.0991 -5.443879,-0.87832 -0.486845,-0.21105 -2.894053,-4.36595 -4.822843,-9.1628 -1.941447,-4.82832 -3.404899,-10.29852 -4.006474,-10.43336 -1.199228,-0.2688 -1.512567,2.51639 -1.512567,2.51639 l -3.7908817,-4.13272 c 0,0 -1.6982071,-7.40228 -3.0432209,-9.38576 -1.3450139,-1.98349 -3.47266326,-2.8812 -3.47266326,-2.8812 l -2.46303704,-4.63697 c 0,0 -3.1606838,1.23102 -4.0765713,0.6442 -0.2719784,-0.17426 -1.428408,-4.33124 -2.3659461,-4.57851 -0.9375381,-0.24728 -2.1048407,2.84544 -3.1461237,2.67581 -0.44396,-0.0723 -3.03614,-5.50622 -4.325089,-5.65444 -0.595242,-0.0684 -0.472315,3.95022 -1.626576,4.01009 -0.271617,0.0141 -1.166579,-2.86909 -1.166579,-2.86909 0,0 -0.69056,5.9341 -1.107345,5.49759 -0.867846,-0.90893 -0.477231,-7.42115 -1.876395,-7.46773 -1.399163,-0.0466 -1.065887,2.96473 -1.065887,2.96473 0,0 -2.520284,3.33163 -4.334946,4.78198 -1.263866,1.01013 -0.02561,2.29373 -1.46425,2.30743 -0.982412,0.009 -2.225768,-7.9761 -2.225768,-7.9761 l -1.022797,1.62007 -1.580188,-5.84271 -0.984029,-6.76894 -0.823147,1.09382 -0.496244,-3.24235 -0.923383,3.90897 -0.585691,-1.05563 c 0,0 -0.386197,2.65229 -1.290059,2.50969 -0.165871,-0.0262 -0.401748,-3.03759 -1.270568,-3.04064 -0.296366,-0.001 -1.135373,6.81199 -2.393517,8.00962 -3.003958,2.85947 -1.251668,11.16385 -4.055772,12.41463 -1.992606,0.8888 -3.801425,-0.35542 -3.801425,-0.35542 l -5.807266,11.36431 c 0,0 -0.628831,6.33176 -3.079569,6.22301 -2.450737,-0.10875 -2.817862,-7.24702 -2.817862,-7.24702 0,0 -2.097239,6.77051 -3.85009,7.1033 -0.959931,0.18226 -3.144726,-1.88533 -3.144726,-1.88533 0,0 -1.740642,4.79668 -3.448828,4.63543 -1.708187,-0.16124 -1.970536,-4.06451 -1.970536,-4.06451 0,0 -1.142295,4.72713 -2.587505,5.79788 -1.44521,1.07074 -6.187221,0.11 -6.187221,0.11 l -5.243609,11.71809 -2.287389,11.16246 -0.882311,0.38596 c 0,0 -1.561163,4.25483 -3.393148,4.33449 -2.166049,0.0942 -2.825364,-10.51192 -2.825364,-10.51192 0,0 -0.689841,1.72114 -2.034465,1.04 -1.344622,-0.68115 -3.209432,-15.17832 -3.209432,-15.17832 0,0 -3.8154,11.04452 -6.06024,10.69365 -1.20514,-0.18836 -2.64486,-12.80377 -4.42795,-13.44999 -0.67509,-0.24466 -2.81491,0.8497 -3.68529,-0.70015 -1.42849,-2.54367 -0.11664,-7.63448 -2.19933,-8.22626 -0.82334,-0.23394 -3.27426,7.9609 -3.27426,7.9609 0,0 -3.95829,-1.40665 -5.57024,-0.45778 -1.61196,0.94887 -2.32167,5.13337 -2.32167,5.13337 0,0 -0.65221,-4.3112 -2.0188,-4.40558 -1.36659,-0.0944 -1.81331,2.84409 -1.81331,2.84409 l -5.72028,-6.13782 -4.21367,-3.04563 c 0,0 -1.12518,4.99556 -2.93199,5.07703 -0.54288,0.0245 -3.81103,-2.79122 -6.19964,-3.73756 -0.47406,-0.18782 -3.39222,-1.57697 -5.32427,-2.67668 -0.48118,-0.27389 0.0751,-2.55073 -1.28852,-2.87609 -0.42343,-0.10104 -1.95145,1.78319 -3.48519,1.56037 -1.05136,-0.15273 -0.92468,-2.09125 -0.92468,-2.09125 l -4.85373,-0.13318 -0.65949,2.20833 c 0,0 -1.45182,-5.85066 -2.50897,-5.87764 -1.05715,-0.027 -1.67685,4.03217 -1.67685,4.03217 0,0 -1.1265,-3.51676 -2.99113,-3.76349 -1.86463,-0.24672 -5.21082,3.84854 -5.21082,3.84854 0,0 -2.98149,-5.34838 -5.73174,-4.75933 -2.75025,0.58906 -4.44446,4.83461 -4.44446,4.83461 0,0 -0.75215,-3.09686 -1.64499,-2.42335 -0.89285,0.67352 -5.04609,5.21519 -5.04609,5.21519 l -3.4777,-2.17551 c 0,0 -0.38466,5.20889 -1.82386,4.86018 -0.80339,-0.19466 -1.38718,-2.87225 -2.33962,-4.89809 -0.75377,-1.60327 -1.98939,-2.67061 -1.98939,-2.67061 0,0 -2.01457,1.85479 -3.59723,3.89485 -1.34347,1.73174 -2.2112,3.70995 -3.00469,3.61035 -1.0729,-0.13467 -1.9824,-3.20367 -2.71274,-5.47383 -0.4461,-1.38665 -0.98642,-2.44384 -0.98642,-2.44384 0,0 -3.02356,3.12389 -3.53793,3.09671 -0.25352,-0.0134 -2.43892,-1.64474 -2.43892,-1.64474 l -2.33704,2.88964 -3.60399,7.58318 c 0,0 -2.8136,1.61959 -4.14794,4.59088 -1.33435,2.9713 -3.25018,12.55279 -5.53034,13.00666 -0.2357,0.0469 -1.79179,-0.48286 -1.79179,-0.48286 0,0 -0.13797,3.35706 -1.48499,3.73023 -1.34702,0.37316 -2.2748,-2.87362 -3.47636,-2.65058 -0.21627,0.0401 -1.86368,5.15115 -1.86368,5.15115 0,0 -0.57676,-2.06642 -2.5552,-1.87319 -1.97844,0.19323 -5.92848,6.44753 -5.92848,6.44753 0,0 -1.17074,-3.19876 -4.05958,-3.16832 -3.28743,0.0346 -4.665,10.80323 -8.60526,11.48388 -2.28218,0.39422 -4.66742,-1.2413 -4.66742,-1.2413 0,0 -2.55989,5.39843 -4.52753,5.87528 -1.96764,0.47686 -4.28228,-2.00925 -4.28228,-2.00925 0,0 -3.53518,12.31835 -5.31383,12.39108 -1.65146,0.0675 -3.14942,-8.15039 -3.14942,-8.15039 0,0 -1.60196,10.283456 -4.65076,10.468512 -3.0488,0.185055 -3.52879,-5.896012 -3.52879,-5.896012 0,0 -0.75666,4.4973 -2.26367,5.14714 -1.50702,0.649844 -1.77338,-1.67112 -3.97906,-1.41749 -0.80298,0.0923 -6.10884,11.796053 -7.02904,11.980584 -0.8681,0.174083 -1.8534,-1.756378 -1.8534,-1.756378 l -1.953,9.439417 c 0,0 -1.20738,6.317912 -2.60312,6.330032 -1.39574,0.01212 -2.11008,-6.179621 -2.11008,-6.179621 0,0 -0.44753,3.085026 -1.42122,3.008713 -0.97368,-0.07631 -2.12164,5.66743 -2.83765,5.718426 -0.71601,0.051 -0.87025,-0.829218 -0.87025,-0.829218 l -1.06405,4.277225 z"
         sodipodi:nodetypes="cccccssccccccczcssssssssssscsczccsccccccczcccsssczssccccczcssssssscccsscccsscczczcsccczccccczscsczcsscccsczcssssscssssscccczcsssccsssczzsczcccczccssscczsscsccscsssscccczzzszssccscsczcsccccscszcsssscczccszssscszcssccccccccsssscczcsczczccccsczcssssczczcccsssssccczczczczccsscssscsccczsczsczcssczcsczczsscczczzccc" />
      <path
         id="path34427"
         style="fill:#b3b3b3;fill-opacity:1;stroke:#005128;stroke-width:0.396875;stroke-linecap:round;stroke-linejoin:round;paint-order:stroke fill markers"
         d="m -328.46085,-408.13827 h 851.75647 l 0.15277,20.68116 -3.54364,-1.19262 -3.33151,2.26914 c 0,0 -0.60449,-2.05537 -2.60224,-3.61919 -1.33977,-1.04875 -3.82946,-0.45804 -5.54238,-1.28265 -1.64769,-0.7932 -3.06163,-4.47307 -4.07474,-4.90962 l -2.23685,6.92191 -1.91722,-0.62226 -4.31488,6.79627 -1.04785,0.24539 -2.13283,9.12044 -2.51136,5.73097 c 0,0 -0.78699,-1.02734 -1.79787,-0.57646 -1.01088,0.45088 -2.15963,9.81821 -2.15963,9.81821 0,0 -0.78202,-0.96666 -3.10288,0.88025 -0.51701,0.41143 -2.49076,2.80601 -4.6948,5.80701 -0.33779,0.45993 -0.39565,-1.62482 -2.01262,-0.16079 -0.65648,0.59439 -0.96698,6.45519 -2.89911,8.98529 -0.39042,0.51125 -2.02828,0.16215 -4.55796,1.96094 -0.24191,0.17202 -0.79554,0.61201 -1.15996,0.95582 0,0 -0.98054,-0.45338 -1.45314,-0.30612 -2.93699,0.91515 -4.39807,4.44151 -7.22294,7.41084 -0.44395,0.46666 -0.32624,-1.55117 -1.83575,-0.99761 -2.56701,0.94135 -3.582,6.68577 -5.58176,6.82185 -2.43342,0.16559 -3.52381,-8.87861 -6.81342,-8.88936 -1.43443,-0.005 -4.8094,6.88182 -4.8094,6.88182 0,0 -0.53014,-7.05797 -4.47327,-7.57604 -1.74027,-0.22865 -4.22718,6.2114 -4.22718,6.2114 0,0 -0.92556,-2.12388 -2.56312,-1.9623 -1.63756,0.16158 -4.38508,4.99278 -4.38508,4.99278 l -2.53503,11.91348 c 0,0 0.15747,3.41453 -1.70477,3.52527 -0.49719,0.0296 -1.56867,-4.03406 -1.56867,-4.03406 l -4.09574,5.72243 -2.94223,7.38002 -1.75344,6.5991 -2.33745,4.40556 -1.53397,7.02006 0.0557,8.41158 c 0,0 -1.60812,4.25452 -3.22978,4.19957 -1.62165,-0.055 -2.46098,-3.69269 -2.46098,-3.69269 l -3.78992,9.35254 -1.92401,-0.0145 c 0,0 -2.84639,2.73997 -4.89593,3.17974 -1.55123,0.33284 -1.15263,-1.54215 -3.02408,-1.32254 -0.68341,0.0802 -4.31517,5.91652 -5.89409,6.1726 -0.57163,0.0927 -1.97318,-2.06766 -1.97318,-2.06766 0,0 -0.52167,1.2317 -1.47999,1.5696 -0.95832,0.3379 -2.35488,-1.92441 -3.99293,-1.3564 -0.8508,0.29503 -1.78072,5.7263 -3.95828,9.56026 -2.01494,3.54764 -4.04522,3.54121 -4.69584,6.67041 l -1.54596,-1.11981 -1.64464,2.41967 -1.62436,8.22504 -1.33818,0.87758 c 0,0 -2.01869,5.56383 -3.37963,5.83351 -1.36094,0.26967 -1.25561,-0.96341 -1.25561,-0.96341 0,0 -0.42392,4.54924 -1.81164,5.91455 -0.71334,0.70182 -2.20701,-5.44748 -3.37489,-5.24111 -1.10409,0.19509 -0.95042,5.59809 -2.35822,5.87696 -1.55558,0.30815 -0.98574,-3.77032 -3.53932,-6.30181 -0.44511,-0.44126 -4.6923,-1.59992 -6.35576,-4.14201 -0.43415,-0.66346 -1.22189,-5.58794 -3.07393,-8.12958 -0.35042,-0.4809 -1.92269,1.07298 -3.43423,0.57318 -0.39985,-0.13222 -1.58094,-4.65781 -1.58094,-4.65781 l -1.19888,-1.09517 -3.76946,-13.02747 c 0,0 -1.16037,4.90453 -2.61182,4.63473 -0.78702,-0.14629 -0.8991,-2.67846 -1.65131,-4.52657 -0.63504,-1.56026 -1.9819,-2.49504 -1.9819,-2.49504 l 0.0823,5.02744 -0.85217,4.80474 c 0,0 0.004,-1.66397 -2.23173,-1.78814 -1.11121,-0.0617 -2.9974,8.1629 -4.15494,8.95602 -1.00172,0.68635 -1.4224,5.46293 -1.12965,5.68248 l -1.90481,4.71711 c 0,0 -0.49757,-1.08456 -1.87515,-0.81971 -1.37757,0.26484 -4.47473,4.5341 -4.47473,4.5341 0,0 -3.1702,-10.21994 -4.916,-10.13294 -1.74581,0.087 -3.12665,4.4269 -3.12665,4.4269 0,0 -1.03472,-11.31338 -2.53247,-11.21772 -1.0825,0.0692 -1.36409,-11.33623 -1.36409,-11.33623 l -0.6347,7.4932 -0.95376,-0.67536 c 0,0 0.064,6.07804 -1.46225,5.90648 -1.52627,-0.17156 -1.945,-10.6593 -1.945,-10.6593 l -0.78959,-1.20031 -0.87232,4.76712 -2.76985,3.07391 -0.37767,-0.92961 c 0,0 -1.34644,4.1056 -2.22409,4.74445 -0.87766,0.63886 -0.0683,2.65588 -0.99227,3.38095 -0.59074,0.46357 -1.39445,-0.96669 -1.39445,-0.96669 0,0 -0.41044,1.2749 -1.37886,1.67627 -0.49656,0.20581 -1.16631,-1.73186 -1.16631,-1.73186 0,0 -0.56401,1.49951 -1.38283,1.92452 -0.81882,0.42501 -2.74106,-0.37797 -2.74106,-0.37797 0,0 -0.8916,4.57372 -2.21694,4.47869 -0.81042,-0.0581 -1.60767,-6.60354 -2.72443,-11.5547 -0.70956,-3.14583 -2.02358,-5.55127 -2.02358,-5.55127 l -0.80894,2.66918 -0.82819,-0.75641 c 0,0 -0.33109,2.37859 -1.46241,2.47295 -0.26489,0.0221 -0.96925,-4.43548 -0.96925,-4.43548 0,0 -0.81723,1.71295 -1.65803,1.58907 -0.84079,-0.12389 -1.37811,-2.44044 -1.37811,-2.44044 0,0 -1.00131,0.11889 -2.1017,-0.62258 -1.43619,-0.96774 -3.10604,-2.83614 -3.59833,-2.60535 -0.3029,0.14201 -1.39256,-1.4134 -2.82925,-2.70485 -0.74715,-0.67162 -0.71848,1.41392 -1.45821,1.24232 -0.90708,-0.21042 -1.08161,-4.37208 -2.29743,-4.62316 -0.29067,-0.06 -1.33551,4.3172 -1.33551,4.3172 0,0 -0.3591,-3.51411 -1.37571,-3.44963 -0.41238,0.0262 -2.79631,5.08947 -4.18548,4.99643 -0.43203,-0.0289 -0.31588,-3.31966 -1.30478,-3.3549 -0.33473,-0.0119 -0.54601,3.55424 -1.75036,3.4498 -0.39101,-0.0339 -0.21908,-2.75371 -1.05874,-2.56925 -0.91817,0.20171 -1.56179,4.73812 -1.56179,4.73812 l -0.66571,-0.55119 -0.78968,0.27022 -0.74247,-1.83437 c 0,0 -1.46085,-0.0614 -2.30714,-0.80035 -0.84629,-0.73895 -2.38375,-1.75885 -2.38375,-1.75885 0,0 -0.5224,-1.76943 -1.84565,-1.79228 -0.47943,-0.008 -1.94267,2.47775 -3.48575,3.5979 -1.28802,0.935 -2.7048,0.48832 -2.96175,0.90025 -0.61446,0.98505 -1.12822,3.29359 -1.12822,3.29359 l -2.16753,-4.23022 c 0,0 -0.62843,0.97657 -2.01079,1.06829 -0.60731,0.0403 -0.69792,-0.80073 -1.81406,-1.26299 -0.63021,-0.26101 -0.50096,1.06981 -1.22487,0.93416 -0.91231,-0.17095 -2.87122,-2.33171 -2.87122,-2.33171 0,0 0.0102,5.45583 -2.26394,5.9675 -2.27409,0.51167 -2.69401,-3.50298 -4.97942,-4.09494 -2.2854,-0.59196 -1.84904,2.57939 -4.71734,2.72384 -0.93617,0.0471 -2.4119,-2.16984 -2.4119,-2.16984 0,0 -1.08009,2.05021 -2.40001,2.06001 -1.31992,0.01 -3.76777,-4.3044 -3.76777,-4.3044 l 0.31416,-1.64805 -1.60966,0.54738 -3.91774,-0.0907 c 0,0 -0.1608,-1.19954 -2.23968,-1.20853 -2.07888,-0.009 -7.25326,5.88107 -7.25326,5.88107 l -1.43577,-2.98912 c 0,0 -0.52988,-3.88165 -1.37419,-4.06264 -0.40749,-0.0874 -1.488,2.06844 -2.81184,1.78516 -0.80755,-0.17281 -0.41483,-0.9628 -1.05305,-0.87199 -0.56774,0.0808 -2.34098,1.93523 -2.34098,1.93523 l -2.48735,2.43503 c 0,0 -2.63616,14.24405 -4.97694,14.02785 -2.34077,-0.2162 0.19319,-5.51137 -1.27588,-5.8084 -1.2065,-0.24394 -2.52561,3.97104 -3.97952,5.27501 -0.39908,0.35792 -5.0054,2.97822 -5.0054,2.97822 0,0 -1.96989,-0.52061 -4.76461,2.28241 -1.11045,1.11375 -3.22764,7.05788 -3.22764,7.05788 l -3.13486,1.46971 c 0,0 -0.26907,5.25717 -2.95942,8.0336 -1.68697,1.74094 -7.15943,0.40147 -7.15943,0.40147 0,0 -0.35744,1.91137 -1.31606,2.06984 -0.20612,0.0341 -1.29664,-1.79166 -2.48214,-1.43662 -0.28708,0.086 -0.52165,2.13416 -1.3246,2.50319 -0.20391,0.0937 -1.13958,-0.19754 -1.93611,0.37427 -0.29419,0.21119 -1.57519,4.18281 -1.57519,4.18281 l -1.72409,-0.60697 -3.69364,2.7256 -1.96187,-1.58595 c 0,0 -0.58798,1.80766 -1.559,2.06649 -0.97103,0.25883 -1.799253,-1.52181 -3.164657,-1.35099 -1.365404,0.17082 -0.849564,3.76723 -2.491041,3.99466 -1.641478,0.22744 -1.990706,-3.75844 -3.805412,-3.50454 -1.206586,0.16882 -1.970778,7.12413 -2.213666,10.11778 -0.242889,2.99364 -5.347506,6.91642 -6.783932,8.86239 -0.610128,0.82656 -2.144086,1.13071 -3.348688,2.87035 -1.631387,2.35599 -2.918473,6.13896 -2.918473,6.13896 l -0.860917,-0.51953 c 0,0 -2.80041,15.19293 -4.09716,15.50518 -0.648,0.15603 -1.628863,-4.6514 -1.628863,-4.6514 0,0 -2.199912,-0.40978 -3.791489,1.65987 -0.660938,0.85947 -3.220647,7.87646 -3.220647,7.87646 0,0 -4.395519,10.65872 -5.562205,10.61546 -1.166685,-0.0433 -2.064657,-3.20383 -2.064657,-3.20383 0,0 -3.280441,7.80934 -5.042534,7.58761 -1.456057,-0.18322 -3.329485,-4.62656 -3.329485,-4.62656 l -1.323585,3.4013 -0.908441,-7.06388 -0.444225,-7.03836 c 0,0 -0.771285,-2.1258 -3.028648,-2.62189 -1.790645,-0.39351 -4.796734,2.2199 -4.796734,2.2199 0,0 -0.369001,2.79685 -1.499096,2.7654 -1.519443,-0.0423 -3.586315,-11.03699 -4.697135,-11.05883 -1.110821,-0.0218 -1.020384,2.5837 -1.020384,2.5837 0,0 -1.526174,-6.20717 -2.834603,-6.48864 -0.259206,-0.0558 -3.189202,0.0991 -5.443879,-0.87832 -0.486845,-0.21105 -2.894053,-4.36595 -4.822843,-9.1628 -1.941447,-4.82832 -3.404899,-10.29852 -4.006474,-10.43336 -1.199228,-0.2688 -1.512567,2.51639 -1.512567,2.51639 l -3.7908817,-4.13272 c 0,0 -1.6982071,-7.40228 -3.0432209,-9.38576 -1.3450139,-1.98349 -3.47266326,-2.8812 -3.47266326,-2.8812 l -2.46303704,-4.63697 c 0,0 -3.1606838,1.23102 -4.0765713,0.6442 -0.2719784,-0.17426 -1.428408,-4.33124 -2.3659461,-4.57851 -0.9375381,-0.24728 -2.1048407,2.84544 -3.1461237,2.67581 -0.44396,-0.0723 -3.03614,-5.50622 -4.325089,-5.65444 -0.595242,-0.0684 -0.472315,3.95022 -1.626576,4.01009 -0.271617,0.0141 -1.166579,-2.86909 -1.166579,-2.86909 0,0 -0.69056,5.9341 -1.107345,5.49759 -0.867846,-0.90893 -0.477231,-7.42115 -1.876395,-7.46773 -1.399163,-0.0466 -1.065887,2.96473 -1.065887,2.96473 0,0 -2.520284,3.33163 -4.334946,4.78198 -1.263866,1.01013 -0.02561,2.29373 -1.46425,2.30743 -0.982412,0.009 -2.225768,-7.9761 -2.225768,-7.9761 l -1.022797,1.62007 -1.580188,-5.84271 -0.984029,-6.76894 -0.823147,1.09382 -0.496244,-3.24235 -0.923383,3.90897 -0.585691,-1.05563 c 0,0 -0.386197,2.65229 -1.290059,2.50969 -0.165871,-0.0262 -0.401748,-3.03759 -1.270568,-3.04064 -0.296366,-0.001 -1.135373,6.81199 -2.393517,8.00962 -3.003958,2.85947 -1.251668,11.16385 -4.055772,12.41463 -1.992606,0.8888 -3.801425,-0.35542 -3.801425,-0.35542 l -5.807266,11.36431 c 0,0 -0.628831,6.33176 -3.079569,6.22301 -2.450737,-0.10875 -2.817862,-7.24702 -2.817862,-7.24702 0,0 -2.097239,6.77051 -3.85009,7.1033 -0.959931,0.18226 -3.144726,-1.88533 -3.144726,-1.88533 0,0 -1.740642,4.79668 -3.448828,4.63543 -1.708187,-0.16124 -1.970536,-4.06451 -1.970536,-4.06451 0,0 -1.142295,4.72713 -2.587505,5.79788 -1.44521,1.07074 -6.187221,0.11 -6.187221,0.11 l -5.243609,11.71809 -2.287389,11.16246 -0.882311,0.38596 c 0,0 -1.561163,4.25483 -3.393148,4.33449 -2.166049,0.0942 -2.825364,-10.51192 -2.825364,-10.51192 0,0 -0.689841,1.72114 -2.034465,1.04 -1.344622,-0.68115 -3.209432,-15.17832 -3.209432,-15.17832 0,0 -3.8154,11.04452 -6.06024,10.69365 -1.20514,-0.18836 -2.64486,-12.80377 -4.42795,-13.44999 -0.67509,-0.24466 -2.81491,0.8497 -3.68529,-0.70015 -1.42849,-2.54367 -0.11664,-7.63448 -2.19933,-8.22626 -0.82334,-0.23394 -3.27426,7.9609 -3.27426,7.9609 0,0 -3.95829,-1.40665 -5.57024,-0.45778 -1.61196,0.94887 -2.32167,5.13337 -2.32167,5.13337 0,0 -0.65221,-4.3112 -2.0188,-4.40558 -1.36659,-0.0944 -1.81331,2.84409 -1.81331,2.84409 l -5.72028,-6.13782 -4.21367,-3.04563 c 0,0 -1.12518,4.99556 -2.93199,5.07703 -0.54288,0.0245 -3.81103,-2.79122 -6.19964,-3.73756 -0.47406,-0.18782 -3.39222,-1.57697 -5.32427,-2.67668 -0.48118,-0.27389 0.0751,-2.55073 -1.28852,-2.87609 -0.42343,-0.10104 -1.95145,1.78319 -3.48519,1.56037 -1.05136,-0.15273 -0.92468,-2.09125 -0.92468,-2.09125 l -4.85373,-0.13318 -0.65949,2.20833 c 0,0 -1.45182,-5.85066 -2.50897,-5.87764 -1.05715,-0.027 -1.67685,4.03217 -1.67685,4.03217 0,0 -1.1265,-3.51676 -2.99113,-3.76349 -1.86463,-0.24672 -5.21082,3.84854 -5.21082,3.84854 0,0 -2.98149,-5.34838 -5.73174,-4.75933 -2.75025,0.58906 -4.44446,4.83461 -4.44446,4.83461 0,0 -0.75215,-3.09686 -1.64499,-2.42335 -0.89285,0.67352 -5.04609,5.21519 -5.04609,5.21519 l -3.4777,-2.17551 c 0,0 -0.38466,5.20889 -1.82386,4.86018 -0.80339,-0.19466 -1.38718,-2.87225 -2.33962,-4.89809 -0.75377,-1.60327 -1.98939,-2.67061 -1.98939,-2.67061 0,0 -2.01457,1.85479 -3.59723,3.89485 -1.34347,1.73174 -2.2112,3.70995 -3.00469,3.61035 -1.0729,-0.13467 -1.9824,-3.20367 -2.71274,-5.47383 -0.4461,-1.38665 -0.98642,-2.44384 -0.98642,-2.44384 0,0 -3.02356,3.12389 -3.53793,3.09671 -0.25352,-0.0134 -2.43892,-1.64474 -2.43892,-1.64474 l -2.33704,2.88964 -3.60399,7.58318 c 0,0 -2.8136,1.61959 -4.14794,4.59088 -1.33435,2.9713 -3.25018,12.55279 -5.53034,13.00666 -0.2357,0.0469 -1.79179,-0.48286 -1.79179,-0.48286 0,0 -0.13797,3.35706 -1.48499,3.73023 -1.34702,0.37316 -2.2748,-2.87362 -3.47636,-2.65058 -0.21627,0.0401 -1.86368,5.15115 -1.86368,5.15115 0,0 -0.57676,-2.06642 -2.5552,-1.87319 -1.97844,0.19323 -5.92848,6.44753 -5.92848,6.44753 0,0 -1.17074,-3.19876 -4.05958,-3.16832 -3.28743,0.0346 -4.665,10.80323 -8.60526,11.48388 -2.28218,0.39422 -4.66742,-1.2413 -4.66742,-1.2413 0,0 -2.55989,5.39843 -4.52753,5.87528 -1.96764,0.47686 -4.28228,-2.00925 -4.28228,-2.00925 0,0 -3.53518,12.31835 -5.31383,12.39108 -1.65146,0.0675 -3.14942,-8.15039 -3.14942,-8.15039 0,0 -1.60196,10.28346 -4.65076,10.46852 -3.0488,0.18505 -3.52879,-5.89602 -3.52879,-5.89602 0,0 -0.75666,4.4973 -2.26367,5.14714 -1.50702,0.64985 -1.77338,-1.67112 -3.97906,-1.41749 -0.80298,0.0923 -6.10884,11.7961 -7.02904,11.98064 -0.8681,0.17408 -1.8534,-1.75639 -1.8534,-1.75639 l -1.953,9.43947 c 0,0 -1.20738,6.31794 -2.60312,6.33006 -1.39574,0.0121 -2.11008,-6.17965 -2.11008,-6.17965 0,0 -0.44753,3.08504 -1.42122,3.00873 -0.97368,-0.0763 -2.12164,5.66746 -2.83765,5.71846 -0.71601,0.051 -0.87025,-0.82923 -0.87025,-0.82923 l -1.06405,4.27725 z"
         sodipodi:nodetypes="cccccssccccccczcssssssssssscsczccsccccccczcccsssczssccccczcssssssscccsscccsscczczcsccczccccczscsczcsscccsczcssssscssssscccczcsssccsssczzsczcccczccssscczsscsccscsssscccczzzszssccscsczcsccccscszcsssscczccszssscszcssccccccccsssscczcsczczccccsczcssssczczcccsssssccczczczczccsscssscsccczsczsczcssczcsczczsscczczzccc" />
    </g>
  </g>
</svg>
