<?xml version="1.0" encoding="UTF-8" standalone="no"?>
<svg
   version="1.1"
   width="1000"
   height="1000"
   id="svg1439"
   viewBox="0 0 1000 1000"
   sodipodi:docname="favicon.svg"
   inkscape:version="1.1.2 (0a00cf5339, 2022-02-04)"
   xmlns:inkscape="http://www.inkscape.org/namespaces/inkscape"
   xmlns:sodipodi="http://sodipodi.sourceforge.net/DTD/sodipodi-0.dtd"
   xmlns="http://www.w3.org/2000/svg"
   xmlns:svg="http://www.w3.org/2000/svg">
  <defs
     id="defs1443" />
  <sodipodi:namedview
     id="namedview1441"
     pagecolor="#ffffff"
     bordercolor="#666666"
     borderopacity="1.0"
     inkscape:pageshadow="2"
     inkscape:pageopacity="0.0"
     inkscape:pagecheckerboard="0"
     showgrid="false"
     inkscape:zoom="0.11762793"
     inkscape:cx="72.261749"
     inkscape:cy="939.40274"
     inkscape:window-width="1366"
     inkscape:window-height="708"
     inkscape:window-x="0"
     inkscape:window-y="0"
     inkscape:window-maximized="1"
     inkscape:current-layer="g1417" />
  <g
     id="g1530"
     style="display:inline"
     transform="translate(-158.8381,-145.33518)">
    <g
       id="g1425"
       transform="matrix(0.59996077,0,0,0.59996077,-228.02017,182.84492)">
      <path
         d="m 1265.0506,1211.3927 c 0,24.5085 5.2886,45.3577 25.3391,60.6861 31.7965,24.3094 90.8997,22.6257 117.2126,-0.8518 23.3687,-20.8519 26.1921,-37.8427 26.1921,-66.451 0,-14.2365 -6.2584,-28.193 -14.5854,-38.3549 -29.0898,-35.4956 -92.716,-36.3288 -128.6508,-7.8267 -12.8593,10.2004 -25.5076,29.9616 -25.5076,52.7983 z m 84.3719,-28.1173 c 12.8434,0 23.256,13.7521 23.256,30.7165 0,16.9643 -10.4126,30.7165 -23.256,30.7165 -12.8433,0 -23.2559,-13.7522 -23.2559,-30.7165 0,-16.9644 10.4126,-30.7165 23.2559,-30.7165 z"
         style="display:inline;fill:#000000;fill-rule:evenodd"
         id="path1399" />
      <path
         d="m 1763.5628,818.1997 1.429,1.7686 c -7.0241,4.1144 -2.4267,5.8564 -14.4806,15.335 l 5.197,4.2816 c -2.4453,13.9021 -9.0195,27.9727 -13.93,38.733 5.1387,-1.0575 11.2844,-5.7477 11.4927,3.1564 0.031,1.2976 -0.6753,4.2099 -0.9235,5.5088 -0.9075,4.742 0.042,7.2815 -0.2719,10.1261 -0.4445,4.0242 -6.6406,7.7286 -8.2434,15.5155 5.6243,-2.9481 12.8486,-7.7869 14.9025,-14.4514 15.0949,5.4783 3.39,14.9542 2.7186,22.0221 9.0978,0.0504 5.5805,-5.408 9.8289,-9.5715 2.1295,0.1101 1.7328,-0.8783 4.7419,1.8827 3.2029,2.6602 2.4214,3.2533 7.3902,4.4116 0,5.749 -1.1715,6.5888 -2.2051,11.0283 7.158,-0.5958 5.3523,-2.785 7.7206,-7.7206 2.9773,0.2481 2.9999,0.5174 5.5141,1.1039 -2.8021,4.1833 -4.9781,3.4722 -5.5141,9.9257 h 5.5141 c 1.5245,-3.1777 2.4201,-7.2151 3.3091,-11.0296 1.8336,2.891 0.5691,5.6906 5.8193,7.4154 3.1484,1.0336 4.1979,-0.2919 6.9086,3.0185 1.4209,1.7367 -0.4047,-0.6555 0.8491,1.3559 0.1101,0.1778 0.3012,0.5706 0.3861,0.7165 0.086,0.1486 0.2189,0.5055 0.3741,0.7297 0.9792,-4.2059 1.1026,-4.385 1.1026,-9.927 8.1266,2.1706 9.0474,16.2731 18.1545,18.3721 3.845,0.8863 5.1731,-1.2685 8.315,-2.9309 4.1515,2.7796 6.0873,4.657 6.618,11.0283 9.2504,0.2069 6.9922,2.6496 7.7206,4.4115 0.8438,0 5.3881,0.211 5.5287,0.1937 l 4.4196,-1.1848 c 7.3597,-1.6823 3.9923,-0.5201 8.6758,-4.6477 4.7765,-4.2086 11.5643,-5.8963 12.2569,-14.2126 5.4279,0.1207 7.6835,2.3471 8.8232,6.6167 -3.3939,5.0683 -7.4698,3.7561 -8.8232,8.8232 2.842,-1.3627 7.2363,-2.7531 9.9297,-1.1928 4.409,2.5554 1.0681,4.9701 6.6141,7.4234 2.704,-1.0416 1.4767,0.3118 2.3869,-2.9216 h -2.3869 c 0.3648,-4.393 0.4458,-3.597 3.309,-5.5142 v 5.1108 c 2.7597,-2.2277 1.6465,-1.0481 3.0383,-4.0082 -3.8755,-5.6044 -5.3615,-5.209 -10.7589,-8.8232 0,-10.4033 3.1352,-10.9685 3.309,-18.7488 -7.6861,-1.7912 -7.4526,-7.1395 -5.6269,-8.9532 4.7141,-4.6862 3.4642,5.3748 10.0385,2.3351 -1.0124,-2.7929 -2.5514,-3.3966 -5.7384,-5.2912 -4.4248,-2.6297 -4.4354,-1.2074 -6.0302,-6.1019 -1.4303,-4.3877 -3.6726,-15.5168 -3.6726,-20.5905 3.3223,-0.8876 2.4214,0.0133 3.309,-3.309 -8.7276,-5.8445 -15.5088,-0.7881 -16.5437,-13.2347 l 6.5809,1.2697 c -1.9464,-3.914 -3.869,-5.9838 -5.6455,-9.9257 -1.486,-3.3024 -2.8155,-7.7272 -4.1038,-11.3374 -3.2944,-9.2252 -9.4242,-19.1589 -10.0664,-21.9173 4.9516,-1.153 5.6774,-1.6532 7.7206,-5.5141 -6.2929,-3.0198 -5.7317,4.0215 -14.4766,-5.3762 -4.6543,-5.0007 -7.1195,-5.144 -10.8903,-12.2701 -10.8067,0 -13.6447,3.1033 -23.654,-1.7965 -8.7661,-4.2909 -11.3507,4.0507 -20.0451,4.5907 -2.1998,0.1366 -2.0725,-0.073 -4.9476,0.3542 -16.0051,2.3723 -8.522,-2.5779 -16.4403,0.0438 -3.2188,1.0654 -7.0426,2.9946 -9.7864,4.6517 l -3.2506,2.2649 c -2.7597,2.1799 -1.8257,2.2237 -5.6972,3.1259 0.9061,3.784 -0.9407,0.5028 2.2064,3.8517 z"
         style="display:inline;fill:#1f1e1f;fill-rule:evenodd"
         id="path1401" />
      <path
         d="m 1637.5708,834.1994 c -1.5245,7.8759 -3.5916,28.4106 -6.4323,34.0999 -5.0099,10.0371 -16.4482,8.7435 -14.1356,26.561 l 11.8854,8.9412 c 7.8307,7.3239 22.0858,32.0301 23.3568,39.5862 3.2533,3.971 1.9225,5.729 6.5411,8.8231 8.9638,-2.3935 0.6979,-8.8231 13.2347,-8.8231 0.3039,3.6433 1.4356,6.6167 2.2065,9.9257 3.6699,0.8558 5.8644,1.6134 9.9668,2.1653 27.7167,3.727 23.0583,8.3084 29.7374,8.8643 0,-5.4186 -2.0619,-7.8334 0,-12.1322 4.1077,-1.9716 5.7436,-0.3529 10.2507,-1.8814 5.0299,-1.7062 2.302,-2.5302 9.602,-2.5302 1.5404,2.3007 4.7526,8.4172 7.4725,9.2969 2.8672,0.9261 3.6487,-0.2787 2.8911,-2.8924 -0.6594,-2.2728 -2.3763,-3.2547 -3.7469,-5.3019 8.7688,-0.195 11.0018,-6.2426 14.5483,-11.9212 4.925,-7.8825 5.0458,-9.0341 17.4367,-9.0341 0,-7.511 -0.1234,-11.0854 3.638,-15.4399 -3.0091,-2.761 -2.6124,-1.7726 -4.7419,-1.8827 -4.2484,4.1635 -0.7311,9.6219 -9.8289,9.5715 0.6714,-7.0679 12.3763,-16.5438 -2.7186,-22.0221 -2.0539,6.6645 -9.2782,11.5033 -14.9025,14.4514 1.6028,-7.7869 7.7989,-11.4913 8.2434,-15.5155 0.3144,-2.8446 -0.6356,-5.3841 0.2719,-10.1261 0.2482,-1.2989 0.954,-4.2112 0.9235,-5.5088 -0.2083,-8.9041 -6.354,-4.2139 -11.4927,-3.1564 4.9105,-10.7603 11.4847,-24.8309 13.93,-38.733 l -5.197,-4.2816 c 12.0539,-9.4786 7.4565,-11.2206 14.4806,-15.335 l -1.429,-1.7686 c -7.8811,4.0321 -4.3532,8.9147 -16.5437,6.074 0,-8.5432 1.1357,-8.4171 -4.4116,-12.1322 -8.8484,2.0619 -8.6361,7.7206 -18.7502,7.7206 -1.7925,-7.698 1.1039,-7.0532 1.1039,-15.4412 l -2.6311,5.0909 c -1.344,2.3299 -1.9702,3.3237 -4.3001,4.6146 -10.2255,5.6654 -17.1368,-11.9106 -37.1859,-11.9106 -0.1287,1.551 -5.676,22.9349 -16.224,20.8213 -5.9639,-1.1954 -2.6151,-3.7349 -9.1416,-4.2775 0.9686,2.0193 1.7408,4.1886 2.2794,6.7958 1.4396,6.959 -1.0004,6.2306 -7.2721,2.6469 -4.1555,-2.3749 -2.1229,-1.7221 -8.2434,-1.7221 -1.7752,2.6509 -2.8167,4.9489 -4.6716,7.7192 z"
         style="display:inline;fill:#fef001;fill-rule:evenodd"
         id="path1403" />
      <path
         d="m 1472.3961,836.4059 1.1025,0.942 c 2.9641,2.1892 4.8946,5.0511 6.5504,8.9837 0.7775,0.8518 0.5864,0.5506 1.4621,1.9 0.5108,0.7881 1.1782,2.0021 1.6028,2.8287 1.3175,2.5687 1.8562,3.4616 2.5169,6.3009 -1.6028,-0.9009 -1.1676,-0.536 -3.309,-1.1026 1.8509,6.9299 9.3552,6.9723 9.866,15.4399 -0.8345,4.1913 -2.103,3.3648 -6.147,5.9029 -3.78,2.371 -3.5598,2.7332 -6.1457,6.0064 -4.7154,5.9692 -7.4075,5.8299 -16.1948,7.7763 -0.4219,11.835 9.0606,14.9118 -6.6233,15.9852 -0.2389,0.0159 -0.6701,0.0942 -0.8638,0.1128 -0.1977,0.0185 -0.5984,0.0398 -0.8743,0.1446 -2.8473,6.4389 0.084,10.5002 0.2348,17.1554 0.1804,8.0244 -4.803,6.6233 -4.9768,14.194 l 3.049,0.9526 c 9.5967,0.5055 10.7311,0.8346 12.6469,10.0757 l -1.352,15.4239 3.0437,1.0442 8.7887,1.3798 c 0.034,6.366 -1.4171,9.2385 4.799,10.4751 11.539,2.2953 15.2965,-2.1349 14.7154,15.5924 -0.072,2.1706 -1.4953,3.0967 2.3657,3.3276 2.1175,0.1274 18.8006,-3.1206 36.6459,0.1446 4.5562,0.8332 8.0112,3.0569 12.6828,1.831 2.8804,-0.7563 7.56,-3.8185 10.5811,-4.9609 18.1545,-6.8688 45.079,-8.0589 62.6391,-14.5642 12.9574,-4.8003 -1.1304,-18.6334 13.1631,-17.6542 5.2899,0.3622 6.9179,2.2993 13.3926,2.2993 1.7739,-7.6145 -1.5444,-5.8604 -7.7206,-8.8232 0.1553,-6.9603 6.0382,-10.7403 12.2078,-12.1321 -1.271,-7.5561 -15.5261,-32.2623 -23.3568,-39.5862 l -11.8854,-8.9412 c -2.3126,-17.8175 9.1257,-16.5239 14.1356,-26.561 2.8407,-5.6893 4.9078,-26.224 6.4323,-34.0999 -5.5128,-0.5095 -15.7981,-4.9622 -21.7938,-6.6207 l -24.1277,-5.6508 c -15.9029,-5.051 0.8823,-31.8496 -15.5805,-42.8725 -6.9683,3.3421 -5.3708,-0.9182 -3.6858,11.4953 0.9725,7.1501 -9.6047,14.3107 -16.4124,20.2428 -16.8396,14.6756 -39.0846,28.9214 -65.9282,28.9214 l -22.0579,-27.5734 c -3.2838,1.7381 -3.6871,2.9734 -7.7206,3.3091 2.2755,9.7638 10.69,15.5566 12.1322,20.9553 z"
         style="display:inline;fill:#00adee;fill-rule:evenodd"
         id="path1405" />
      <path
         d="m 1907.7729,948.9018 c -1.3918,2.9601 -0.2786,1.7805 -3.0383,4.0082 l -0.9221,0.4034 c -0.9102,3.2334 0.3171,1.88 -2.3869,2.9216 -1.5497,6.8051 -27.2921,36.0144 -28.6759,41.1942 -9.135,0 -15.4598,1.1622 -23.13,1.1344 -57.4367,-0.2176 -300.8828,37.6768 -312.2972,64.9742 -3.8729,9.2623 8.3164,29.3831 13.6647,33.9712 11.7394,10.069 23.8119,6.6777 38.7316,1.8017 34.6797,-11.3321 80.7405,-26.289 116.0265,-33.9658 33.9923,-7.3955 98.3297,-21.5935 129.5053,-21.5935 l -146.9473,165.1735 c -3.1538,2.9163 -5.0511,3.8649 -8.2951,7.1461 l -47.446,41.8894 -51.1862,39.2518 c -6.2253,4.2099 -11.3268,8.0735 -17.6503,12.1282 -12.3233,7.8997 -23.9486,15.343 -36.9472,22.6098 -26.3911,14.7513 -50.8147,26.906 -80.3809,38.733 -56.1404,22.4572 -129.4867,35.8194 -207.6267,24.7048 -66.0715,-9.3976 -131.0484,-38.9254 -163.8904,-80.9541 -17.9117,-22.9216 -31.4157,-42.5873 -38.2354,-74.2605 -15.4372,-71.6864 12.5501,-137.6505 53.2029,-191.8512 12.5382,-16.7176 20.4976,-24.6743 35.4094,-39.5875 l 23.2254,-20.8903 c 2.9522,-2.4957 5.6508,-4.5734 8.6348,-6.8064 l 25.8445,-18.2712 c 31.8483,-19.3407 33.8,-20.9288 69.6313,-35.1441 20.0239,-7.9448 31.4078,-7.7431 48.8524,-11.8084 2.4559,3.6686 5.1241,7.1434 7.3053,11.4529 5.0883,10.0557 5.1652,3.4589 11.4436,1.7832 9.9655,6.6724 1.6226,7.3092 -0.3277,12.9163 -1.9862,5.7091 5.0179,3.1458 -7.3704,12.4718 -1.8694,1.4064 -4.4434,3.0529 -6.338,4.6902 -8.7064,7.5242 1.4727,2.2648 -12.7505,9.3088 -3.2705,1.6186 -3.7959,2.8194 -7.4035,4.7286 2.5753,3.5147 1.8376,0.897 4.4129,4.4116 9.6591,-6.4694 8.6056,-7.2907 23.1101,-11.08 25.8896,-6.764 13.1657,5.1904 12.1826,8.8736 4.4394,-2.9734 3.7906,-5.1878 9.9257,-6.6167 2.4333,29.2491 0.1844,15.8883 -3.309,30.881 4.2868,-1.145 4.113,-3.098 7.7205,-5.5141 0.28,3.3674 1.3932,2.7371 1.2326,5.2421 -0.09,1.3931 -1.1291,1.1543 -1.2326,5.7862 5.3165,7.9395 10.617,3.0091 7.7206,15.4411 8.1107,0 11.4953,0.066 12.1322,7.7206 3.2002,-2.1441 4.6531,-3.4523 10.2654,-1.5099 4.0493,1.4011 5.6495,3.7668 9.586,4.8176 6.1192,-4.0971 2.103,-7.7192 12.1322,-7.7192 0.1075,4.7976 1.1026,6.0156 1.1026,12.1308 19.46,0 12.2184,-0.7443 10.1884,-10.1805 -0.6223,-2.8963 -0.2614,-6.6419 -0.2614,-9.6709 6.2319,-3.2984 6.3062,-2.5687 8.4954,-10.2535 2.5807,-9.0553 1.0111,-9.1057 0.3278,-17.3199 4.6729,1.2485 4.0931,3.2984 9.0712,2.4439 5.1838,-0.8889 5.1161,-1.34 11.8841,-1.34 l 11.0283,16.5424 c 12.0194,-25.0498 17.6463,-12.0817 17.6463,-36.3952 l 6.618,-3.3846 -3.0437,-1.0442 1.352,-15.4239 c -5.944,-2.4626 -9.4255,-4.8428 -12.6469,-10.0757 l -3.049,-0.9526 c 0.1738,-7.5707 5.1572,-6.1696 4.9768,-14.194 -0.1512,-6.6552 -3.0821,-10.7165 -0.2348,-17.1554 0.2759,-0.1048 0.6766,-0.1261 0.8743,-0.1446 0.1937,-0.0186 0.6249,-0.0969 0.8638,-0.1128 15.6839,-1.0734 6.2014,-4.1502 6.6233,-15.9852 8.7873,-1.9464 11.4794,-1.8071 16.1948,-7.7763 2.5859,-3.2732 2.3657,-3.6354 6.1457,-6.0064 4.044,-2.5381 5.3125,-1.7116 6.147,-5.9029 l -3.4788,-3.0808 c -10.0903,5.2329 -8.5592,-5.0047 -17.4155,-5.7423 0.1619,-7.2921 5.2939,-12.3485 8.7555,-16.5438 -1.6558,-3.9326 -3.5863,-6.7945 -6.5504,-8.9837 -1.4647,0.2136 -1.1025,0.5334 -1.1025,-0.942 -8.7754,0 -52.1548,-4.7406 -56.8676,-2.9004 -3.8928,1.5205 -9.7107,6.9935 -12.6151,9.5171 -13.4934,-9.0355 -7.9276,-29.2438 -20.0836,-40.5759 -5.0179,-4.677 -7.1461,-4.6425 -16.3129,-4.6425 -2.5925,9.7121 -7.6237,9.2425 -4.7459,23.4922 1.5762,7.8068 5.2222,16.4044 5.8485,23.9326 -36.5345,-19.3313 -97.3108,-12.6045 -135.4255,-1.9742 -46.9246,13.0874 -91.6201,38.6627 -130.0705,67.3492 -7.9329,5.9175 -14.8641,11.4887 -22.3684,17.3358 l -31.7023,27.8547 c -29.663,29.7625 -57.519,62.0022 -78.2183,100.4513 -32.83,60.9819 -41.0216,121.2925 -19.1163,193.7525 5.9586,19.7068 15.1134,38.2421 25.1546,54.2551 42.3498,67.5363 117.5708,107.7474 194.6029,123.0333 35.1944,6.9843 70.5521,10.1792 106.6713,11.3414 l 38.3349,-1.4409 c 23.0902,-3.1471 47.3439,-5.0749 69.7056,-9.7041 31.6055,-6.5437 61.4635,-15.6999 90.8466,-27.1647 23.4404,-9.1469 45.7915,-19.5649 68.4186,-30.8426 17.71,-8.8271 33.8783,-18.6799 50.7219,-28.6865 24.1595,-14.3546 47.6185,-30.9461 69.7639,-48.2474 16.6274,-12.9906 33.8371,-25.7146 49.2717,-40.0638 l 10.5865,-9.265 c 17.4579,-13.9737 50.1964,-48.0271 56.4283,-52.7585 l 94.4927,-104.0296 c 3.2957,-3.8995 5.4889,-7.174 8.8802,-10.9739 l 26.4018,-33.1539 c 4.8348,-6.1205 3.0158,-6.3778 13.5903,-6.2624 7.1819,0.078 10.6528,-1.1623 18.7635,-1.088 l 37.6423,-2.0631 c 10.682,-1.1995 28.1333,-0.1606 39.5437,-0.1606 0,12.5156 -3.2586,24.1038 -5.0498,36.8609 -5.4438,38.7662 -6.756,80.2682 -4.8574,119.7309 1.9969,41.5073 20.0624,90.994 45.355,124.4928 38.7396,51.3123 85.1627,75.2821 148.2449,84.4674 6.7255,0.9792 13.9672,0.4458 20.8452,1.2857 15.1812,1.8522 36.5717,-4.5628 48.68,-13.256 5.5486,-3.983 8.169,-4.7698 8.169,-13.8875 -4.592,-1.0707 -6.2067,-2.6124 -12.1972,-3.2427 -13.8331,-1.4568 -26.7746,-4.7724 -39.5038,-9.0248 -8.1133,-2.712 -14.9291,-5.5858 -22.5621,-9.4229 -37.6118,-18.9028 -60.0598,-44.3081 -77.5615,-83.4617 -6.5716,-14.7009 -11.6492,-31.0681 -15.1771,-48.7901 -3.4099,-17.1209 -6.2001,-39.2186 -6.155,-58.9174 0.024,-10.6608 0,-21.3242 0,-31.985 0,-20.885 2.1866,-39.7307 3.3409,-60.6277 0.5095,-9.2039 3.2771,-21.149 3.2771,-29.8103 10.5746,0 19.4442,2.9919 29.7414,2.1839 8.2155,-0.6448 18.5405,-4.6186 18.859,-13.2454 0.5625,-15.2421 -32.0075,-20.6515 -44.1888,-20.9234 0.1539,-6.9551 2.5475,-17.4818 3.78,-24.8946 14.6876,-88.3085 46.707,-193.5257 80.0294,-277.3125 6.2823,-15.7954 23.1724,-50.909 23.1724,-66.1631 -18.0882,-12.1122 -60.7418,-21.9252 -75.5939,-17.154 -3.7508,1.2047 -10.1805,4.8985 -12.8274,7.0399 -8.0749,6.5305 -12.4188,11.7594 -19.3977,19.2053 -31.7846,33.9088 -133.211,189.7098 -166.3622,239.5043 -4.6769,7.0253 -19.2557,30.8585 -24.7062,34.8508 -1.1503,-4.937 -3.0675,-9.4468 -8.8231,-9.9257 -0.9885,11.8707 -1.567,8.7183 4.4116,17.6463 z m 118.3417,47.1488 h -84.2511 l 117.6,-180.7885 z"
         style="display:inline;fill:#eb008b;fill-rule:evenodd"
         id="path1407" />
      <path
         d="m 1176.8178,1144.1165 h -19.8528 l -1.474,33.9578 c -1.0522,8.0669 -0.1659,2.9084 1.474,9.0554 h 18.7502 c 0,22.846 -3.309,43.4378 -3.309,68.3801 0,49.6313 83.2932,31.4091 86.0264,28.6746 l 7.7206,-40.8068 -3.5452,-3.0728 c -5.2395,2.2701 -29.5423,8.7674 -29.5423,-6.8542 l 1.1026,-46.3209 h 26.4708 c 2.6509,0 3.2413,-1.7872 5.5141,-3.309 0,-7.3531 0.019,-14.7088 0,-22.0619 -0.064,-20.751 8.1611,-17.6423 -29.7745,-17.6423 v -18.7502 c 0,-7.3345 1.1026,-9.5463 1.1026,-16.5438 -4.4116,-3.0649 -1.6492,-3.4855 -7.4327,-2.0976 -3.4496,0.8292 -6.4469,1.5987 -10.8465,2.5673 l -30.9434,6.5557 c -4.9914,0.8518 -8.2327,-2.9827 -8.1345,18.3362 0.024,4.9065 1.4661,9.9324 -3.3024,9.9324 z"
         style="display:inline;fill:#000000;fill-rule:evenodd"
         id="path1409" />
    </g>
    <g
       id="g1417"
       transform="matrix(0.83943834,0,0,0.83943834,50.793945,32.878995)">
      <path
         d="m 275.7456,474.6538 c 0,41.6825 10.2269,79.8436 32.6324,114.0536 2.0512,3.1338 3.232,4.8029 5.2992,7.9355 l 71.5312,80.6689 c 2.4546,2.4532 4.2351,4.0971 6.6406,6.5954 2.895,3.0079 3.5677,4.7115 6.5888,7.7485 8.9479,8.9903 16.297,21.7235 19.3274,35.818 4.2484,19.7586 -2.8261,38.3456 16.7985,38.3456 h 152.2014 c 20.1061,0 11.8137,-20.2601 17.6131,-43.0464 3.2015,-12.5819 14.7512,-31.0734 24.2962,-37.4646 102.6739,-46.03848 187.4514,-262.89073 18.7542,-382.7127 -34.7792,-23.0928 -84.0323,-40.8028 -126.8385,-40.8028 -35.8592,0 -55.2064,0.9925 -89.1961,12.2715 -6.2718,2.0817 -14.2246,4.7565 -19.9934,7.5786 -6.0873,2.9774 -11.8456,5.0312 -17.9979,8.4729 -41.0854,22.9814 -74.2393,53.3609 -95.5992,96.3038 -11.6453,23.4099 -22.0579,53.3462 -22.0579,88.2342 z m 167.3639,241.8713 c -3.3634,-9.7971 -6.7268,-19.5941 -19.0129,-34.8057 -12.2874,-15.213 -33.4961,-35.8393 -50.9753,-55.1481 -17.4804,-19.3101 -31.2299,-37.3014 -41.3958,-53.5373 -10.1659,-16.2359 -16.7481,-30.7165 -21.0628,-46.1471 -4.3147,-15.4319 -6.3633,-31.8138 -6.7281,-46.8795 -0.3662,-15.0657 0.9513,-28.8152 4.389,-42.7837 3.4364,-13.9698 8.9943,-28.1571 14.9184,-40.3702 5.9241,-12.2145 12.2131,-22.4533 21.1358,-33.2043 8.9226,-10.751 20.4776,-22.0128 34.2272,-32.2516 13.7495,-10.2389 29.6922,-19.4548 44.0268,-26.1099 14.3347,-6.6552 27.0599,-10.7497 42.7107,-13.6753 15.6509,-2.9255 34.2272,-4.6809 53.1698,-4.0228 18.9413,0.6581 38.2487,3.7309 53.0955,7.6808 14.8455,3.9485 25.2316,8.7754 37.5919,15.5765 12.3591,6.8011 26.6937,15.5779 39.273,25.9627 12.5793,10.3847 23.4033,22.3789 31.6679,33.4961 8.2632,11.1159 13.9684,21.3547 18.5763,31.3746 4.6067,10.0186 8.1173,19.8196 11.0429,30.7895 2.9256,10.9699 5.2647,23.1101 6.435,32.8368 1.1702,9.7267 1.1702,17.0413 1.1702,20.6979 0,3.6566 0.43555,16.70678 0.43555,16.70678 -2.31923,59.32872 -45.69496,118.31205 -102.82395,157.28052 -3.6566,4.0215 -10.9699,12.0672 -16.0887,18.1373 -5.12,6.07 -8.0456,10.1645 -10.532,14.7724 -2.4864,4.608 -4.535,9.7268 -5.5579,12.2875 -1.0243,2.5593 -1.0243,2.5593 -0.2933,-26.4748 0.7311,-29.0342 2.1945,-87.1038 4.6809,-138.8088 2.4865,-51.7064 5.9971,-97.0508 9.5078,-142.3939 l -22.9641,0.146 c -22.964,0.1459 -68.8935,0.4392 -114.8217,0.7311 -0.5864,54.267 -1.1729,108.5354 -3.5133,159.6566 -2.3405,51.1213 -6.435,99.0954 -8.7741,124.985 -2.3405,25.8884 -2.9256,29.6923 -3.5107,33.4949 z"
         style="display:inline;fill:#00adee;fill-rule:evenodd;stroke:#000201;stroke-opacity:1;stroke-width:3.57381818;stroke-miterlimit:4;stroke-dasharray:none"
         id="path1391"
         sodipodi:nodetypes="sccccccsscccsccccscsssccccscscsccsccssscccscsscscscc" />
      <path
         d="m 394.8595,801.1133 c 0,10.3171 7.0691,16.5437 16.5437,16.5437 h 197.4197 c 4.9145,0 8.5087,-1.7673 11.2433,-4.198 10.6474,-9.4666 3.5717,-26.6844 -11.2433,-26.6844 H 409.1968 c -6.7627,0 -14.3373,7.5747 -14.3373,14.3387 z"
         style="display:inline;fill:#000000;fill-rule:evenodd"
         id="path1411" />
      <path
         d="m 416.9174,861.7728 c 0,11.2472 6.6936,17.6463 17.6463,17.6463 h 151.0975 c 22.9813,0 23.7614,-31.9849 0,-31.9849 H 434.5637 c -8.5844,0 -17.6463,5.9519 -17.6463,14.3386 z"
         style="display:inline;fill:#000000;fill-rule:evenodd"
         id="path1413" />
      <path
         d="m 437.8727,924.6375 c 0,6.2385 7.694,15.4411 15.4412,15.4411 h 113.5984 c 18.9598,0 18.9598,-30.881 0,-30.881 H 454.4164 c -4.8003,0 -8.6188,1.7885 -11.2551,4.1847 -1.9318,1.7567 -5.2886,8.2526 -5.2886,11.2552 z"
         style="fill:#000000;fill-rule:evenodd"
         id="path1415" />
      <path
         d="m 495.2232,159.2226 v 50.7338 c 0,20.751 29.7785,19.277 29.7785,2.2052 v -54.0415 c 0,-17.2443 -29.7785,-17.2072 -29.7785,1.1025 z"
         style="display:inline;fill:#fef001;fill-rule:evenodd"
         id="path1417" />
      <path
         d="m 158.8381,338.9961 c 0,7.2257 6.0767,11.3945 11.3786,13.9884 6.5225,3.1909 11.1317,6.1231 17.2973,9.1721 7.373,3.6473 27.3943,16.5437 35.2926,16.5437 10.4631,0 14.3373,-6.6857 14.3373,-15.4398 0,-9.0554 -17.0757,-15.4731 -27.5866,-20.9408 l -21.4064,-11.681 c -19.0633,-11.441 -29.3128,-1.4807 -29.3128,8.3574 z"
         style="fill:#fef001;fill-rule:evenodd"
         id="path1419" />
      <path
         d="m 783.0809,364.363 c 0,9.4202 6.8104,14.3373 16.5437,14.3373 3.9817,0 43.9871,-21.6134 49.8449,-25.152 8.0536,-4.8666 11.9185,-4.9502 11.9185,-15.6548 0,-9.0089 -10.0385,-14.2616 -17.6688,-12.2409 -6.8768,1.8203 -15.9918,8.0138 -22.0221,11.1516 -7.4313,3.869 -14.0056,7.5309 -21.7182,11.3706 -6.7666,3.3688 -16.898,8.0895 -16.898,16.1882 z"
         style="fill:#fef001;fill-rule:evenodd"
         id="path1421" />
      <path
         d="m 301.1125,207.7513 c 0,5.3324 14.535,25.7742 17.9979,31.632 8.9386,15.1162 13.8556,26.8211 26.1178,26.8211 7.9555,0 15.7344,-9.1588 13.4975,-16.7016 -1.3016,-4.3904 -21.831,-36.573 -24.5257,-40.6489 -4.2604,-6.4442 -7.0572,-15.4412 -17.6463,-15.4412 -8.5486,0 -15.4412,6.1271 -15.4412,14.3386 z"
         style="fill:#fef001;fill-rule:evenodd;stroke:#fef001;stroke-width:0.216;stroke-linecap:butt;stroke-linejoin:miter;stroke-dasharray:none"
         id="path1423" />
      <path
         d="m 661.7619,251.8671 c 0,13.5969 18.8961,22.1123 29.1562,4.8919 4.3081,-7.2297 28.1943,-42.9044 28.1943,-47.9051 0,-17.572 -19.4786,-21.4609 -29.3221,-5.0591 -3.3793,5.6296 -6.0926,10.2641 -9.7148,15.6522 -3.7349,5.5552 -18.3136,26.9484 -18.3136,32.4201 z"
         style="fill:#fef001;fill-rule:evenodd"
         id="path1425" />
    </g>
  </g>
</svg>
