<?xml version="1.0" encoding="UTF-8" standalone="no"?>
<svg
   version="1.1"
   width="3456"
   height="1584"
   id="svg1439"
   viewBox="0 0 3456 1584"
   sodipodi:docname="logo.svg"
   inkscape:version="1.1.2 (0a00cf5339, 2022-02-04)"
   xmlns:inkscape="http://www.inkscape.org/namespaces/inkscape"
   xmlns:sodipodi="http://sodipodi.sourceforge.net/DTD/sodipodi-0.dtd"
   xmlns="http://www.w3.org/2000/svg"
   xmlns:svg="http://www.w3.org/2000/svg">
  <defs
     id="defs1443" />
  <sodipodi:namedview
     id="namedview1441"
     pagecolor="#ffffff"
     bordercolor="#666666"
     borderopacity="1.0"
     inkscape:pageshadow="2"
     inkscape:pageopacity="0.0"
     inkscape:pagecheckerboard="0"
     showgrid="false"
     inkscape:zoom="0.11762793"
     inkscape:cx="1619.5133"
     inkscape:cy="403.81566"
     inkscape:window-width="1366"
     inkscape:window-height="708"
     inkscape:window-x="0"
     inkscape:window-y="0"
     inkscape:window-maximized="1"
     inkscape:current-layer="g1530" />
  <g
     id="g1530"
     style="display:inline">
    <path
       d="m 203.6491,449.928 c -17.8225,-4.023 -31.8702,-13.219 -48.6376,-22.0426 -5.7789,-2.8585 -11.2878,-6.228 -17.0266,-9.0354 -31.1728,-15.256 -52.4743,-43.9793 -52.4743,-79.8541 0,-73.2685 77.4082,-107.5699 138.7317,-72.1952 l 19.8121,10.8096 c 6.5237,3.4024 12.8795,6.8376 18.914,10.47 -2.2707,-3.5411 -4.4976,-7.1917 -6.7099,-10.9337 -13.9528,-22.4916 -28.4714,-40.5294 -28.4714,-69.395 0,-48.9917 40.0549,-87.6666 88.7654,-87.6666 37.2512,0 61.2724,19.0746 79.2117,48.9259 5.8155,8.7981 13.8286,20.9109 20.6845,32.8522 1.8363,-0.5622 3.6507,-1.1025 5.4468,-1.6209 v -41.0186 c 0,-25.989 11.2768,-50.3716 31.359,-66.9236 55.822,-46.0054 145.0729,-9.4479 145.0729,65.8211 v 42.1393 c 1.9458,0.5659 3.8843,1.15 5.8192,1.7524 4.6874,-8.0643 9.948,-15.8475 15.0771,-23.4773 2.7234,-4.0486 5.1839,-8.2943 7.6956,-12.4743 47.6117,-79.3321 165.5202,-49.6378 165.5202,42.7929 0,29.1686 -18.9724,54.6391 -34.254,78.5837 2.9533,-1.7194 5.998,-3.3549 9.1193,-4.9101 6.9143,-3.4426 13.6826,-7.1991 20.3998,-10.6927 12.9634,-6.9947 22.1484,-13.0657 37.2329,-17.0631 49.5283,-13.1241 100.5679,19.8229 108.6687,69.3512 h 50.2037 c 19.206,0 37.6673,7.0348 51.8792,19.9983 24.6309,22.466 28.0516,49.9298 23.2364,79.9418 35.6923,-14.3106 75.5647,-20.5313 115.6889,-20.5313 51.1309,0 107.1683,8.2797 151.1366,36.3604 l 1.756,-7.5422 44.4137,-10.3569 c 13.3687,-3.1176 26.7702,-4.7823 40.2666,-7.0494 72.9326,-12.2588 170.6859,-20.0785 240.1175,7.6846 13.5584,5.4213 26.1057,12.2626 37.2402,20.6517 63.6745,-50.0393 160.5699,-42.2233 236.5763,-32.7718 11.1125,1.38 21.7396,2.2999 32.7426,4.859 l 52.5072,12.2297 8.0022,107.9386 c 0.3468,3.5082 0.4746,6.8741 0.5221,10.3641 4.1872,24.3936 -3.4097,45.801 -20.0202,64.9851 l -1.4894,1.7195 c 8.2212,16.0884 13.3321,33.4837 14.9275,51.1638 2.9789,-4.2275 5.9761,-8.444 8.9842,-12.6495 13.1971,-18.4358 27.6792,-38.8684 43.1652,-55.3912 8.8674,-9.4625 16.5447,-17.786 26.7811,-26.0693 10.0429,-8.1227 24.2549,-15.9095 36.5174,-19.8485 39.8358,-12.7955 104.3683,2.9679 138.823,26.0437 l 32.5236,21.7834 v 39.1422 c 0,32.874 -16.5009,63.4408 -28.3618,93.2629 -5.3482,13.449 -10.6052,27.2448 -15.7197,41.2961 29.8769,-23.47 67.9494,-39.0327 105.5657,-43.8333 19.6076,-2.5006 40.1935,-1.9019 59.1112,3.0739 2.9643,-5.0635 6.4653,-9.9772 10.5321,-14.6902 7.1589,-8.2906 15.7306,-15.2268 25.3245,-20.5057 40.4966,-22.2762 77.6054,-20.8597 113.2576,8.3892 14.493,11.8902 39.5328,17.8261 57.1836,22.2835 29.7199,7.5058 67.6465,9.6852 102.1852,10.3095 22.7946,-28.8073 45.8192,-57.4502 67.7852,-86.889 5.2313,-7.0056 10.2546,-14.1207 15.1063,-21.3928 3.2308,-4.8444 7.3926,-10.3532 10.4044,-15.6138 4.3698,-21.5643 16.4315,-40.5294 34.6446,-53.0621 45.5563,-31.3371 109.7712,-7.1772 145.4343,28.6758 26.8797,27.0184 46.4033,59.6479 44.0304,99.115 -0.7082,11.7441 -3.1651,22.3821 -6.8632,32.2972 29.3001,-4.4099 58.2314,-9.9918 87.0313,-17.1251 17.7896,-4.4721 31.3299,-9.8787 50.5542,-9.8787 8.4037,-0.0912 16.384,-0.4161 24.8462,0.0475 44.3554,2.4496 84.8519,25.9269 91.0544,73.7831 l 1.7048,13.1424 -3.0044,12.9086 c -8.9587,38.4815 -36.0903,55.4533 -69.6324,68.9132 -24.4958,9.8276 -49.5904,17.1909 -75.1777,23.5613 -8.9587,2.2269 -17.8371,4.64 -26.803,6.7756 l -1.1208,1.2339 c -2.8329,3.2162 -5.7242,5.9542 -8.7214,8.9477 -6.4397,6.4288 -12.2004,13.1423 -17.3004,20.6116 0.8543,36.9883 10.1561,69.3549 19.144,105.3174 1.2412,4.9539 2.4934,9.8713 3.7383,14.7668 13.6789,-15.0662 28.3034,-29.5337 41.2924,-45.0453 16.3914,-19.5784 35.5865,-38.6493 51.0323,-58.6074 49.4736,-63.9264 151.7244,-45.8119 161.4753,36.0246 3.2856,27.5769 -6.1258,49.2033 -23.5466,69.2308 -6.5931,8.2979 -13.7046,16.1504 -20.2319,24.4629 -14.1098,17.9648 -28.5407,35.6522 -43.293,53.095 l -0.7338,0.8652 -64.9084,72.0819 c -18.4504,23.1707 -52.2407,53.9456 -74.3855,72.5712 -36.4481,30.6617 -74.0022,59.239 -116.8462,80.493 -51.6748,25.6385 -84.976,33.0018 -142.8862,33.0018 -51.3828,0 -103.9448,-19.3849 -137.8629,-57.932 -15.3947,10.6854 -31.1984,20.8415 -48.9734,31.2677 -70.0266,41.0698 -168.5319,35.55 -227.154,-23.3203 -1.6975,-1.7048 -3.3403,-3.417 -4.932,-5.1364 -2.9022,2.0808 -5.8301,4.1362 -8.7761,6.1696 -32.6733,22.5792 -62.7947,40.6462 -100.2102,46.7355 -1.526,29.4132 -14.4127,50.0576 -38.5763,67.4091 -27.2667,19.5748 -66.9492,30.5596 -99.7393,26.5439 -7.9109,-0.5914 -14.9895,-0.3906 -23.1232,-1.5771 -82.1723,-11.9668 -145.7519,-46.0273 -196.1965,-112.8414 -34.0715,-45.1256 -57.3553,-108.6687 -60.075,-165.1551 -1.0441,-21.7542 -1.2266,-43.7676 -0.4089,-65.7445 -1.7486,2.216 -3.4608,4.5378 -5.2715,6.6771 l -0.8396,0.9929 -99.9181,110.0012 -3.8077,2.8913 c -18.7643,16.7894 -35.3236,35.5719 -55.1539,51.6968 l -8.7104,7.6226 c -16.8989,15.6065 -35.0973,29.2051 -53.1936,43.344 -24.7148,19.312 -50.4847,37.4885 -77.4593,53.5112 -18.3007,10.8752 -36.3896,21.7651 -55.4642,31.275 -24.3936,12.1567 -49.072,23.6088 -74.4732,33.5239 -33.3742,13.0219 -67.5405,23.3933 -102.6415,30.6581 -24.7951,5.1328 -49.6633,7.148 -74.6666,10.554 l -3.5557,0.4856 -44.4794,1.672 -2.5555,-0.08 c -39.8577,-1.2813 -79.4453,-4.9429 -118.5875,-12.7079 -96.8844,-19.2242 -189.0741,-70.8735 -242.4538,-155.9993 -14.0368,-22.3821 -25.5692,-46.6807 -33.2246,-71.9906 -26.6278,-88.0828 -18.7168,-169.0029 24.7441,-249.7333 23.8424,-44.2896 55.5044,-81.9934 90.8499,-117.4558 l 1.7122,-1.7194 35.1411,-30.8808 1.7012,-1.3216 c 7.8525,-6.1221 15.6174,-12.3245 23.6014,-18.2787 14.8654,-11.0907 30.3697,-21.6374 46.4179,-31.3627 -29.0153,-4.6984 -57.1399,-13.2445 -83.9137,-28.5152 -13.5585,16.6542 -33.8159,27.3433 -59.0272,27.3433 H 853.6681 c -9.6815,0 -19.1842,-1.7705 -28.0662,-5.1985 -40.701,13.2409 -86.2209,15.4459 -128.6706,5.9214 -2.8365,14.347 -9.4661,28.3216 -20.4326,40.5659 0.7739,23.47 -7.6007,45.0124 -21.9696,61.3564 1.0842,46.4143 -33.6626,91.4632 -87.6154,91.4632 H 453.3129 c -47.5496,0 -88.7654,-41.2815 -88.7654,-88.769 0,-1.1865 0.0292,-2.3803 0.0876,-3.5777 -13.2299,-15.7306 -21.0459,-36.291 -21.0459,-59.2864 0,-0.3614 0.004,-0.7229 0.007,-1.0843 -13.7921,-15.7415 -22.0645,-36.5064 -22.0645,-59.5748 0,-22.4077 9.0828,-43.2711 23.6708,-59.02 -2.6541,-2.7745 -5.0379,-5.5891 -7.4108,-8.5826 -1.4639,-1.4603 -2.9717,-2.8877 -4.4319,-4.348 l -1.5552,-1.5551 -76.3277,-86.0749 -8.0898,-12.1165 c -31.0304,-46.4946 -44.9686,-99.0858 -44.9686,-154.7617 0,-8.3198 0.4162,-16.563 1.2303,-24.7258 z"
       style="display:inline;fill:#fffff6;stroke:#e30016;stroke-width:0.5;stroke-linecap:butt;stroke-linejoin:miter;stroke-dasharray:none;fill-opacity:1"
       id="path1437" />
    <path
       d="M -72,-72 V 1656 H 3528 V -72 Z"
       style="display:inline;fill:none;stroke:#1b1918;stroke-width:0.5;stroke-linecap:butt;stroke-linejoin:miter;stroke-dasharray:none"
       id="path1383" />
    <path
       d="m 2026.1146,996.0506 h -84.2511 l 117.6,-180.7885 z"
       style="display:inline;fill:none"
       id="path1385" />
    <path
       d="m 2593.2763,1268.1103 c 70.2097,-9.6537 140.4195,-68.0159 195.4167,-120.3077 54.9972,-52.2918 94.7819,-98.5132 114.6742,-121.6239 19.8924,-23.1107 19.8924,-23.1107 17.5521,-34.2272 -2.3402,-11.1165 -7.0207,-33.3495 -7.6058,-53.8272 -0.5851,-20.4777 2.9251,-39.2 7.6056,-52.6568 4.6805,-13.4568 10.5312,-21.6479 13.4565,-25.7435 2.9254,-4.0956 2.9254,-4.0956 -14.0418,-2.9253 -16.9673,1.1702 -50.9017,3.5106 -67.8689,4.6809 -16.9672,1.1702 -16.9672,1.1702 -57.3374,53.8272 -40.3703,52.657 -121.1108,157.971 -194.8312,273.8157"
       style="display:inline;fill:none"
       id="path1387" />
    <path
       d="m 2762.7923,809.9364 c -49.9683,0 -110.6304,-1.8986 -153.7498,-12.7889 -31.5524,-7.9687 -61.1385,-16.5066 -85.7358,-36.6858 -7.7604,-6.3672 -12.3976,-11.2857 -31.4012,-0.8319 -20.605,11.3348 -10.2149,54.1596 21.2831,71.6096 57.4964,31.8549 139.2904,33.8424 207.6943,33.8424 -0.9154,3.4284 -2.2489,3.922 -4.4049,6.6247 l -74.0535,94.6904 c -6.76,8.449 -12.773,17.0214 -19.3857,25.8326 -6.7189,8.9505 -12.6536,16.8887 -19.3857,25.8339 -22.7452,30.223 -43.7416,61.7157 -64.2923,93.4233 -3.9193,6.0462 -5.8259,7.6715 -10.6594,12.501 l -93.9367,86.9393 c -11.3667,8.8696 -40.7418,32.4506 -57.9874,32.4506 -13.0264,0 -19.8528,-3.0383 -19.8528,-15.4411 0,-32.054 54.2644,-104.5206 76.1618,-141.1109 34.3638,-57.4208 31.2605,-74.9623 -31.4304,-101.0404 -42.31,-17.6012 -52.6165,-64.7274 -34.4461,-98.2859 7.7869,-14.3811 22.704,-32.4175 34.6359,-44.7739 4.0639,-4.2086 5.7383,-5.7795 9.3008,-10.552 31.0668,-41.6267 -57.4779,-45.0366 -110.6225,-2.5368 -21.9398,17.5455 -42.8606,44.7526 -42.8606,76.252 0,19.4547 2.371,35.3298 10.9633,49.6962 24.0878,40.2841 82.7837,48.1028 82.7837,72.7267 0,33.7496 -17.9249,55.0127 -34.1901,79.4084 -27.2628,40.8904 -55.1453,77.4342 -55.1453,130.1423 0,41.4582 25.1241,69.484 65.0711,69.484 34.3068,0 60.5852,-18.0523 86.4775,-35.9454 13.0556,-9.0235 25.5234,-18.3217 37.3319,-28.8418 2.0127,-1.7938 2.4134,-1.9159 4.2895,-3.4311 l 22.1507,-19.7599 c 3.2706,-3.2533 5.5062,-4.3094 8.8603,-7.6834 2.9787,-2.9959 5.1958,-5.7782 8.5313,-8.0125 0,32.241 4.6172,53.6077 26.1922,75.2755 34.2099,34.3532 96.0211,36.4854 138.0963,11.8097 39.7678,-23.3236 52.9097,-33.3648 88.7582,-61.2367 l 63.7536,-57.5654 c 11.7249,-10.3251 21.5073,-22.5926 32.5449,-33.6289 5.7051,-5.7065 13.8079,-12.7862 18.5591,-18.9399 4.2033,-5.4438 9.05,-9.0235 13.3754,-14.198 2.0313,-2.4293 2.0843,-3.041 4.4381,-5.4862 l 44.6796,-49.0687 c 3.1697,-3.5691 4.6186,-7.7405 9.6604,-9.0872 0,4.8918 1.2604,8.7409 1.9053,12.432 0.8358,4.7871 1.551,9.3884 2.1945,13.2467 1.5165,9.0964 2.5925,16.4256 3.9591,25.8193 6.6021,45.3962 16.0767,137.8721 -31.9411,161.7437 -21.104,10.4923 -61.2009,11.563 -79.1417,-6.545 -9.8581,-9.9509 -14.0852,-19.6617 -14.9954,-35.7371 -1.6519,-29.1297 -36.3859,-24.2511 -36.3859,4.4023 0,16.821 3.0078,30.1287 10.2839,43.7575 16.2652,30.4684 54.4449,46.6805 92.2849,46.6805 48.9466,0 69.8529,-5.2939 110.2987,-25.359 37.3571,-18.5326 70.5534,-44.2723 102.2358,-70.9209 14.9025,-12.5342 56.0795,-51.4304 65.3975,-63.6421 l 65.8446,-73.1208 c 14.401,-17.024 27.7591,-33.39 41.6135,-51.0297 7.1023,-9.0434 13.8609,-16.3673 20.9487,-25.3749 3.3806,-4.2961 8.437,-8.0098 7.6821,-14.3492 -1.5802,-13.2706 -19.4879,-14.2789 -30.6767,0.1778 -10.2601,13.2573 -38.6985,43.9619 -52.7983,60.8015 -13.0304,15.5632 -34.0269,36.7468 -47.3664,51.8948 -8.6467,9.8195 -20.2959,19.5051 -27.9422,29.4083 l -35.4784,35.1082 c -3.1723,3.2095 -4.32,3.8569 -7.6755,6.6618 -2.6429,2.2091 -4.7578,4.6491 -7.2084,7.1288 -3.106,3.1419 -4.6517,3.8928 -7.7193,6.6194 -3.1418,2.7902 -4.1621,4.0268 -7.5985,6.7388 -4.5854,3.6208 -10.6807,10.7483 -16.4005,12.2754 1.4356,-6.1616 2.4334,-11.3215 3.6461,-18.4119 7.6741,-44.8694 -8.1465,-94.4356 -18.6454,-136.4378 -11.3321,-45.3378 -21.3972,-80.1952 -21.3972,-128.5965 0,-11.8828 5.3298,-24.3639 10.1301,-31.7806 8.4211,-13.0132 17.7829,-24.275 28.7475,-35.221 2.0088,-2.0061 3.6713,-3.4404 5.5062,-5.5234 l 9.9655,-10.9885 c 9.7373,-10.0451 -0.3834,-6.8555 21.6612,-11.4263 11.1543,-2.314 22.0818,-5.4186 33.6195,-8.2912 22.5422,-5.6109 44.1583,-11.8601 65.5753,-20.4511 8.5087,-3.4138 23.313,-8.0005 25.5235,-17.4898 -1.6426,-12.6748 -33.8557,-9.927 -43.0132,-9.927 -8.5114,0 -24.8919,5.6933 -33.0849,7.7232 -34.6066,8.5724 -68.0855,14.8933 -104.5882,20.0399 -23.2188,3.2745 -48.9625,7.2735 -74.0521,8.6653 -5.0126,0.2786 -14.5536,1.267 -19.0846,1.8707 -3.4244,0.4578 -6.2093,0.1115 -9.5582,0.3689 -15.5433,1.1928 -33.9644,3.2427 -49.6962,3.2427 12.842,-19.1761 31.6917,-39.9749 45.8512,-58.9255 36.3952,-48.7117 59.9815,-66.1126 17.3067,-109.0077 -9.8501,-9.9006 -51.7316,-35.7053 -56.2533,-12.6563 -0.8266,4.2099 -0.1181,4.5655 -1.486,8.4397 -0.8306,2.3498 -2.225,4.8096 -3.5651,7.4645 -4.6809,9.2862 -10.7191,17.5137 -16.1908,25.7199 -5.7012,8.5498 -11.0946,16.1935 -17.3438,24.5668 -28.2407,37.8441 -58.0471,74.2127 -87.0679,111.4544 -1.8602,2.3882 -2.6337,5.1506 -5.879,5.1506 z m -156.6449,443.4001 c 10.5321,11.5564 33.9354,8.3376 69.0396,-12.7252 35.1055,-21.0628 81.912,-59.9709 125.2078,-102.5357 43.2958,-42.5648 83.0796,-88.7862 102.9722,-111.8975 19.8926,-23.1101 19.8926,-23.1101 17.5521,-34.2273 -2.3405,-11.1158 -7.02,-33.3488 -7.6052,-53.8265 -0.5851,-20.4777 2.9243,-39.2 7.6052,-52.6577 4.6809,-13.4563 10.5307,-21.6466 13.4563,-25.7424 2.9256,-4.0958 2.9256,-4.0958 -14.0414,-2.9255 -16.967,1.1702 -50.9023,3.5106 -67.8693,4.6809 -16.967,1.1702 -16.967,1.1702 -43.8809,36.2744 -26.9126,35.1056 -80.7405,105.314 -119.9405,159.7257 -39.2,54.413 -63.7735,93.0279 -77.2311,125.4998 -13.4564,32.4719 -15.7955,58.802 -5.2648,70.357 z"
       style="display:inline;fill:#eb008b;fill-rule:evenodd"
       id="path1389" />
    <path
       d="m 275.7456,474.6538 c 0,41.6825 10.2269,79.8436 32.6324,114.0536 2.0512,3.1338 3.232,4.8029 5.2992,7.9355 l 71.5312,80.6689 c 2.4546,2.4532 4.2351,4.0971 6.6406,6.5954 2.895,3.0079 3.5677,4.7115 6.5888,7.7485 8.9479,8.9903 16.297,21.7235 19.3274,35.818 4.2484,19.7586 -2.8261,38.3456 16.7985,38.3456 h 152.2014 c 20.1061,0 11.8137,-20.2601 17.6131,-43.0464 3.2015,-12.5819 14.7512,-31.0734 24.2962,-37.4646 1.6412,7.0453 13.6075,22.8142 18.4503,27.8719 38.8192,40.5361 108.0007,48.4916 160.3625,29.6206 22.5236,-8.1173 26.2213,-13.256 42.8712,-24.4063 0,16.1643 -3.6858,27.5734 3.309,27.5734 h 108.0843 c 6.6632,0 4.4129,-12.2808 4.4116,-18.7502 l 1.0654,-46.3594 c 0.0106,-7.8321 1.1583,-13.8703 1.1145,-23.1485 l 2.1733,-33.1194 c 0.3211,-3.8835 -0.1552,-8.1796 0.0531,-12.0791 l 1.409,-21.7514 c 1.7673,-12.903 2.1189,-38.8895 3.9486,-55.6098 0.4325,-3.9564 -0.0783,-7.6516 0.4643,-11.6678 1.8098,-13.3913 1.5537,-29.5383 3.6434,-43.7814 1.0402,-7.0917 1.1026,-14.393 1.6532,-21.5073 l 4.4288,-42.9959 c 0.5307,-5.5235 4.4421,-17.7472 -2.3073,-17.7472 H 861.388 c 0,15.4226 -1.1158,27.2523 -1.1039,41.9107 0.008,8.1385 -0.7615,13.3899 -1.1078,19.8461 -0.1911,3.5691 0.1446,7.4778 0.0411,11.0707 -0.1539,5.3789 -1.0322,5.1055 -1.1384,9.8899 -11.7155,0 -36.7162,-3.309 -56.2479,-3.309 l -43.0796,3.2427 c -4.9024,0.6899 -9.8209,1.9013 -14.2722,2.2715 0,-75.2264 -36.5465,-139.6036 -97.0507,-179.7775 -34.7792,-23.0928 -84.0323,-40.8028 -126.8385,-40.8028 -35.8592,0 -55.2064,0.9925 -89.1961,12.2715 -6.2718,2.0817 -14.2246,4.7565 -19.9934,7.5786 -6.0873,2.9774 -11.8456,5.0312 -17.9979,8.4729 -41.0854,22.9814 -74.2393,53.3609 -95.5992,96.3038 -11.6453,23.4099 -22.0579,53.3462 -22.0579,88.2342 z m 577.0913,77.742 c 1.1729,58.1837 -4.8508,72.3751 -21.2963,94.4117 -16.4469,22.038 -42.391,36.9896 -70.8745,15.7318 -28.4862,-21.2592 -29.4309,-54.7739 -12.984,-76.8106 16.4443,-22.0353 50.4778,-33.2016 105.1548,-33.3329 z M 443.1095,716.5251 c -3.3634,-9.7971 -6.7268,-19.5941 -19.0129,-34.8057 -12.2874,-15.213 -33.4961,-35.8393 -50.9753,-55.1481 -17.4804,-19.3101 -31.2299,-37.3014 -41.3958,-53.5373 -10.1659,-16.2359 -16.7481,-30.7165 -21.0628,-46.1471 -4.3147,-15.4319 -6.3633,-31.8138 -6.7281,-46.8795 -0.3662,-15.0657 0.9513,-28.8152 4.389,-42.7837 3.4364,-13.9698 8.9943,-28.1571 14.9184,-40.3702 5.9241,-12.2145 12.2131,-22.4533 21.1358,-33.2043 8.9226,-10.751 20.4776,-22.0128 34.2272,-32.2516 13.7495,-10.2389 29.6922,-19.4548 44.0268,-26.1099 14.3347,-6.6552 27.0599,-10.7497 42.7107,-13.6753 15.6509,-2.9255 34.2272,-4.6809 53.1698,-4.0228 18.9413,0.6581 38.2487,3.7309 53.0955,7.6808 14.8455,3.9485 25.2316,8.7754 37.5919,15.5765 12.3591,6.8011 26.6937,15.5779 39.273,25.9627 12.5793,10.3847 23.4033,22.3789 31.6679,33.4961 8.2632,11.1159 13.9684,21.3547 18.5763,31.3746 4.6067,10.0186 8.1173,19.8196 11.0429,30.7895 2.9256,10.9699 5.2647,23.1101 6.435,32.8368 1.1702,9.7267 1.1702,17.0413 1.1702,20.6979 0,3.6566 0,3.6566 -2.4864,4.535 -2.4864,0.877 -7.4592,2.6323 -16.8197,8.1902 -9.3619,5.558 -23.1114,14.9198 -34.0813,25.3046 -10.9712,10.3848 -19.1615,21.7938 -26.1815,33.2042 -7.0214,11.4104 -12.8726,22.8235 -16.3819,35.1096 -3.5107,12.2861 -4.6823,25.4478 -4.7552,36.1975 -0.073,10.7483 0.9499,19.0859 1.4621,23.2546 0.5121,4.1688 0.5121,4.1688 -3.1445,8.1916 -3.6566,4.0215 -10.9699,12.0672 -16.0887,18.1373 -5.12,6.07 -8.0456,10.1645 -10.532,14.7724 -2.4864,4.608 -4.535,9.7268 -5.5579,12.2875 -1.0243,2.5593 -1.0243,2.5593 -0.2933,-26.4748 0.7311,-29.0342 2.1945,-87.1038 4.6809,-138.8088 2.4865,-51.7064 5.9971,-97.0508 9.5078,-142.3939 0,0 0,0 -22.9641,0.146 -22.964,0.1459 -68.8935,0.4392 -114.8217,0.7311 -0.5864,54.267 -1.1729,108.5354 -3.5133,159.6566 -2.3405,51.1213 -6.435,99.0954 -8.7741,124.985 -2.3405,25.8884 -2.9256,29.6923 -3.5107,33.4949 z"
       style="display:inline;fill:#00adee;fill-rule:evenodd"
       id="path1391" />
    <path
       d="m 999.2508,615.8256 c 0,39.9524 7.3504,67.4235 33.9141,94.0217 7.093,7.1023 12.6111,11.6904 21.5736,17.028 39.1735,23.325 86.5638,25.7093 134.2114,25.7093 26.9007,0 53.5944,-2.4267 78.7835,-6.1391 5.0405,-0.743 7.7034,-1.0813 12.574,-1.7633 3.5611,-0.4989 8.6069,-1.7142 12.3153,-2.0234 2.8167,-12.0897 5.0895,-25.9971 7.4446,-37.7737 2.6151,-13.0795 5.1373,-24.9516 7.9965,-37.2231 l -3.5451,-3.0728 c -47.1887,10.4338 -118.3325,30.2627 -163.6463,2.6217 -18.4703,-11.2658 -23.2759,-40.357 -15.891,-40.357 h 206.2429 c 0,-5.5844 1.5775,-10.5148 2.5461,-16.2027 0.5148,-3.0225 1.5523,-14.9158 1.6465,-18.0908 0.2747,-9.2425 -2.1759,-24.2418 -4.8905,-33.3887 -6.7348,-22.7027 -15.3457,-32.728 -31.0084,-47.2974 -27.1833,-25.2873 -74.0256,-35.0154 -124.9054,-35.0154 -68.461,0 -129.9882,21.2672 -157.7234,77.1954 -4.7141,9.5038 -8.3893,16.3712 -11.7541,27.9514 -2.9348,10.1049 -5.8843,21.3614 -5.8843,33.8199 z m 124.0177,-34.5629 c 0,-19.7453 24.539,-40.15 50.4632,-40.15 25.9241,0 40.3689,12.9442 43.4417,40.15 -31.1703,0 -56.7561,0 -93.9049,0 z"
       style="display:inline;fill:#00adee;fill-rule:evenodd"
       id="path1393" />
    <path
       d="m 1388.5748,493.4027 c -3.5624,15.2952 -4.7353,32.1667 -9.0421,50.5149 -1.007,4.2948 -3.0901,11.5696 -3.0901,16.7626 6.1258,1.624 0.7324,2.2476 5.7158,1.2764 5.0909,-0.9911 36.5146,-11.2207 50.8002,-14.2444 6.3075,-1.3361 106.715,-23.0437 106.715,5.2474 0,7.2443 0.019,10.7232 -9.5409,15.826 -7.8347,4.1834 -39.1045,9.9337 -48.124,11.4343 -39.878,6.6326 -90.5481,15.0007 -120.6822,40.3411 -14.3001,12.026 -27.8971,30.2747 -27.8971,54.8203 0,25.4797 19.066,49.9231 35.217,59.6339 32.4042,19.4853 89.8927,20.8227 126.9765,14.328 5.193,-0.9102 3.7601,0.2309 7.2403,-10.406 l 18.0602,-49.2173 -3.5452,-3.0728 c -14.1435,3.0529 -34.7022,9.0858 -51.7647,2.1334 -9.9376,-4.048 -10.8637,-9.4613 -10.8637,-16.7069 0,-14.0746 25.6349,-21.23 38.3654,-24.4992 7.7193,-1.9822 16.9604,-3.991 24.6332,-6.2479 7.3531,-2.1639 17.9568,-4.8932 24.1303,-7.8546 0,8.2102 -1.8044,20.5746 -2.2077,28.6733 l -5.8698,72.4733 c -0.5678,3.7774 -2.4346,11.3494 3.666,11.3494 h 119.1139 c 0,-34.2763 1.7925,-67.3652 4.3518,-99.3209 l 3.4523,-48.3854 c 3.6514,-46.8636 13.8783,-86.2852 -39.3048,-107.5483 -54.0746,-21.6214 -142.5715,-13.2321 -200.7407,-3.4563 -12.0326,2.022 -24.665,3.5598 -35.7649,6.1457 z"
       style="display:inline;fill:#00adee;fill-rule:evenodd"
       id="path1395" />
    <path
       d="m 1708.4174,547.4455 c 0,18.7993 2.1255,33.1061 16.2452,47.7233 28.6388,29.6472 90.7366,57.8508 90.7366,68.0816 0,17.8838 -32.8275,15.4399 -46.3223,15.4399 -27.8745,0 -74.4223,-17.6463 -79.4097,-17.6463 -6.1191,0 0.1486,26.7189 1.0734,37.5296 l 4.4421,41.8801 c 28.3402,6.6021 78.7145,12.1309 109.1869,12.1309 45.6031,0 108.603,-10.7908 130.0851,-51.8948 11.494,-21.9942 6.082,-48.7741 -10.6289,-68.6627 -14.673,-17.4632 -42.6086,-33.7443 -61.7263,-44.153 -7.0784,-3.853 -29.054,-15.1798 -29.054,-23.8848 0,-20.284 67.6702,-11.9504 80.9766,-9.2889 5.8379,1.1676 10.4286,2.3192 15.213,3.5359 5.8034,1.4767 9.7891,3.3886 15.2037,4.6491 5.1864,-5.9852 2.5872,-2.3737 2.2038,-11.027 -0.1513,-3.4284 0.1698,-6.155 -0.2999,-9.6259 l -4.1104,-55.4465 c -7.6184,-1.7753 -16.5318,-2.44 -25.1625,-3.5134 -57.3598,-7.1328 -155.1164,-18.4437 -193.9728,29.2213 -6.1284,7.5176 -14.6796,22.0671 -14.6796,34.9516 z"
       style="display:inline;fill:#00adee;fill-rule:evenodd"
       id="path1397" />
    <path
       d="m 1265.0506,1211.3927 c 0,24.5085 5.2886,45.3577 25.3391,60.6861 31.7965,24.3094 90.8997,22.6257 117.2126,-0.8518 23.3687,-20.8519 26.1921,-37.8427 26.1921,-66.451 0,-14.2365 -6.2584,-28.193 -14.5854,-38.3549 -29.0898,-35.4956 -92.716,-36.3288 -128.6508,-7.8267 -12.8593,10.2004 -25.5076,29.9616 -25.5076,52.7983 z m 84.3719,-28.1173 c 12.8434,0 23.256,13.7521 23.256,30.7165 0,16.9643 -10.4126,30.7165 -23.256,30.7165 -12.8433,0 -23.2559,-13.7522 -23.2559,-30.7165 0,-16.9644 10.4126,-30.7165 23.2559,-30.7165 z"
       style="display:inline;fill:#000000;fill-rule:evenodd"
       id="path1399" />
    <path
       d="m 1763.5628,818.1997 1.429,1.7686 c -7.0241,4.1144 -2.4267,5.8564 -14.4806,15.335 l 5.197,4.2816 c -2.4453,13.9021 -9.0195,27.9727 -13.93,38.733 5.1387,-1.0575 11.2844,-5.7477 11.4927,3.1564 0.031,1.2976 -0.6753,4.2099 -0.9235,5.5088 -0.9075,4.742 0.042,7.2815 -0.2719,10.1261 -0.4445,4.0242 -6.6406,7.7286 -8.2434,15.5155 5.6243,-2.9481 12.8486,-7.7869 14.9025,-14.4514 15.0949,5.4783 3.39,14.9542 2.7186,22.0221 9.0978,0.0504 5.5805,-5.408 9.8289,-9.5715 2.1295,0.1101 1.7328,-0.8783 4.7419,1.8827 3.2029,2.6602 2.4214,3.2533 7.3902,4.4116 0,5.749 -1.1715,6.5888 -2.2051,11.0283 7.158,-0.5958 5.3523,-2.785 7.7206,-7.7206 2.9773,0.2481 2.9999,0.5174 5.5141,1.1039 -2.8021,4.1833 -4.9781,3.4722 -5.5141,9.9257 h 5.5141 c 1.5245,-3.1777 2.4201,-7.2151 3.3091,-11.0296 1.8336,2.891 0.5691,5.6906 5.8193,7.4154 3.1484,1.0336 4.1979,-0.2919 6.9086,3.0185 1.4209,1.7367 -0.4047,-0.6555 0.8491,1.3559 0.1101,0.1778 0.3012,0.5706 0.3861,0.7165 0.086,0.1486 0.2189,0.5055 0.3741,0.7297 0.9792,-4.2059 1.1026,-4.385 1.1026,-9.927 8.1266,2.1706 9.0474,16.2731 18.1545,18.3721 3.845,0.8863 5.1731,-1.2685 8.315,-2.9309 4.1515,2.7796 6.0873,4.657 6.618,11.0283 9.2504,0.2069 6.9922,2.6496 7.7206,4.4115 0.8438,0 5.3881,0.211 5.5287,0.1937 l 4.4196,-1.1848 c 7.3597,-1.6823 3.9923,-0.5201 8.6758,-4.6477 4.7765,-4.2086 11.5643,-5.8963 12.2569,-14.2126 5.4279,0.1207 7.6835,2.3471 8.8232,6.6167 -3.3939,5.0683 -7.4698,3.7561 -8.8232,8.8232 2.842,-1.3627 7.2363,-2.7531 9.9297,-1.1928 4.409,2.5554 1.0681,4.9701 6.6141,7.4234 2.704,-1.0416 1.4767,0.3118 2.3869,-2.9216 h -2.3869 c 0.3648,-4.393 0.4458,-3.597 3.309,-5.5142 v 5.1108 c 2.7597,-2.2277 1.6465,-1.0481 3.0383,-4.0082 -3.8755,-5.6044 -5.3615,-5.209 -10.7589,-8.8232 0,-10.4033 3.1352,-10.9685 3.309,-18.7488 -7.6861,-1.7912 -7.4526,-7.1395 -5.6269,-8.9532 4.7141,-4.6862 3.4642,5.3748 10.0385,2.3351 -1.0124,-2.7929 -2.5514,-3.3966 -5.7384,-5.2912 -4.4248,-2.6297 -4.4354,-1.2074 -6.0302,-6.1019 -1.4303,-4.3877 -3.6726,-15.5168 -3.6726,-20.5905 3.3223,-0.8876 2.4214,0.0133 3.309,-3.309 -8.7276,-5.8445 -15.5088,-0.7881 -16.5437,-13.2347 l 6.5809,1.2697 c -1.9464,-3.914 -3.869,-5.9838 -5.6455,-9.9257 -1.486,-3.3024 -2.8155,-7.7272 -4.1038,-11.3374 -3.2944,-9.2252 -9.4242,-19.1589 -10.0664,-21.9173 4.9516,-1.153 5.6774,-1.6532 7.7206,-5.5141 -6.2929,-3.0198 -5.7317,4.0215 -14.4766,-5.3762 -4.6543,-5.0007 -7.1195,-5.144 -10.8903,-12.2701 -10.8067,0 -13.6447,3.1033 -23.654,-1.7965 -8.7661,-4.2909 -11.3507,4.0507 -20.0451,4.5907 -2.1998,0.1366 -2.0725,-0.073 -4.9476,0.3542 -16.0051,2.3723 -8.522,-2.5779 -16.4403,0.0438 -3.2188,1.0654 -7.0426,2.9946 -9.7864,4.6517 l -3.2506,2.2649 c -2.7597,2.1799 -1.8257,2.2237 -5.6972,3.1259 0.9061,3.784 -0.9407,0.5028 2.2064,3.8517 z"
       style="display:inline;fill:#1f1e1f;fill-rule:evenodd"
       id="path1401" />
    <path
       d="m 1637.5708,834.1994 c -1.5245,7.8759 -3.5916,28.4106 -6.4323,34.0999 -5.0099,10.0371 -16.4482,8.7435 -14.1356,26.561 l 11.8854,8.9412 c 7.8307,7.3239 22.0858,32.0301 23.3568,39.5862 3.2533,3.971 1.9225,5.729 6.5411,8.8231 8.9638,-2.3935 0.6979,-8.8231 13.2347,-8.8231 0.3039,3.6433 1.4356,6.6167 2.2065,9.9257 3.6699,0.8558 5.8644,1.6134 9.9668,2.1653 27.7167,3.727 23.0583,8.3084 29.7374,8.8643 0,-5.4186 -2.0619,-7.8334 0,-12.1322 4.1077,-1.9716 5.7436,-0.3529 10.2507,-1.8814 5.0299,-1.7062 2.302,-2.5302 9.602,-2.5302 1.5404,2.3007 4.7526,8.4172 7.4725,9.2969 2.8672,0.9261 3.6487,-0.2787 2.8911,-2.8924 -0.6594,-2.2728 -2.3763,-3.2547 -3.7469,-5.3019 8.7688,-0.195 11.0018,-6.2426 14.5483,-11.9212 4.925,-7.8825 5.0458,-9.0341 17.4367,-9.0341 0,-7.511 -0.1234,-11.0854 3.638,-15.4399 -3.0091,-2.761 -2.6124,-1.7726 -4.7419,-1.8827 -4.2484,4.1635 -0.7311,9.6219 -9.8289,9.5715 0.6714,-7.0679 12.3763,-16.5438 -2.7186,-22.0221 -2.0539,6.6645 -9.2782,11.5033 -14.9025,14.4514 1.6028,-7.7869 7.7989,-11.4913 8.2434,-15.5155 0.3144,-2.8446 -0.6356,-5.3841 0.2719,-10.1261 0.2482,-1.2989 0.954,-4.2112 0.9235,-5.5088 -0.2083,-8.9041 -6.354,-4.2139 -11.4927,-3.1564 4.9105,-10.7603 11.4847,-24.8309 13.93,-38.733 l -5.197,-4.2816 c 12.0539,-9.4786 7.4565,-11.2206 14.4806,-15.335 l -1.429,-1.7686 c -7.8811,4.0321 -4.3532,8.9147 -16.5437,6.074 0,-8.5432 1.1357,-8.4171 -4.4116,-12.1322 -8.8484,2.0619 -8.6361,7.7206 -18.7502,7.7206 -1.7925,-7.698 1.1039,-7.0532 1.1039,-15.4412 l -2.6311,5.0909 c -1.344,2.3299 -1.9702,3.3237 -4.3001,4.6146 -10.2255,5.6654 -17.1368,-11.9106 -37.1859,-11.9106 -0.1287,1.551 -5.676,22.9349 -16.224,20.8213 -5.9639,-1.1954 -2.6151,-3.7349 -9.1416,-4.2775 0.9686,2.0193 1.7408,4.1886 2.2794,6.7958 1.4396,6.959 -1.0004,6.2306 -7.2721,2.6469 -4.1555,-2.3749 -2.1229,-1.7221 -8.2434,-1.7221 -1.7752,2.6509 -2.8167,4.9489 -4.6716,7.7192 z"
       style="display:inline;fill:#fef001;fill-rule:evenodd"
       id="path1403" />
    <path
       d="m 1472.3961,836.4059 1.1025,0.942 c 2.9641,2.1892 4.8946,5.0511 6.5504,8.9837 0.7775,0.8518 0.5864,0.5506 1.4621,1.9 0.5108,0.7881 1.1782,2.0021 1.6028,2.8287 1.3175,2.5687 1.8562,3.4616 2.5169,6.3009 -1.6028,-0.9009 -1.1676,-0.536 -3.309,-1.1026 1.8509,6.9299 9.3552,6.9723 9.866,15.4399 -0.8345,4.1913 -2.103,3.3648 -6.147,5.9029 -3.78,2.371 -3.5598,2.7332 -6.1457,6.0064 -4.7154,5.9692 -7.4075,5.8299 -16.1948,7.7763 -0.4219,11.835 9.0606,14.9118 -6.6233,15.9852 -0.2389,0.0159 -0.6701,0.0942 -0.8638,0.1128 -0.1977,0.0185 -0.5984,0.0398 -0.8743,0.1446 -2.8473,6.4389 0.084,10.5002 0.2348,17.1554 0.1804,8.0244 -4.803,6.6233 -4.9768,14.194 l 3.049,0.9526 c 9.5967,0.5055 10.7311,0.8346 12.6469,10.0757 l -1.352,15.4239 3.0437,1.0442 8.7887,1.3798 c 0.034,6.366 -1.4171,9.2385 4.799,10.4751 11.539,2.2953 15.2965,-2.1349 14.7154,15.5924 -0.072,2.1706 -1.4953,3.0967 2.3657,3.3276 2.1175,0.1274 18.8006,-3.1206 36.6459,0.1446 4.5562,0.8332 8.0112,3.0569 12.6828,1.831 2.8804,-0.7563 7.56,-3.8185 10.5811,-4.9609 18.1545,-6.8688 45.079,-8.0589 62.6391,-14.5642 12.9574,-4.8003 -1.1304,-18.6334 13.1631,-17.6542 5.2899,0.3622 6.9179,2.2993 13.3926,2.2993 1.7739,-7.6145 -1.5444,-5.8604 -7.7206,-8.8232 0.1553,-6.9603 6.0382,-10.7403 12.2078,-12.1321 -1.271,-7.5561 -15.5261,-32.2623 -23.3568,-39.5862 l -11.8854,-8.9412 c -2.3126,-17.8175 9.1257,-16.5239 14.1356,-26.561 2.8407,-5.6893 4.9078,-26.224 6.4323,-34.0999 -5.5128,-0.5095 -15.7981,-4.9622 -21.7938,-6.6207 l -24.1277,-5.6508 c -15.9029,-5.051 0.8823,-31.8496 -15.5805,-42.8725 -6.9683,3.3421 -5.3708,-0.9182 -3.6858,11.4953 0.9725,7.1501 -9.6047,14.3107 -16.4124,20.2428 -16.8396,14.6756 -39.0846,28.9214 -65.9282,28.9214 l -22.0579,-27.5734 c -3.2838,1.7381 -3.6871,2.9734 -7.7206,3.3091 2.2755,9.7638 10.69,15.5566 12.1322,20.9553 z"
       style="display:inline;fill:#00adee;fill-rule:evenodd"
       id="path1405" />
    <path
       d="m 1907.7729,948.9018 c -1.3918,2.9601 -0.2786,1.7805 -3.0383,4.0082 l -0.9221,0.4034 c -0.9102,3.2334 0.3171,1.88 -2.3869,2.9216 -1.5497,6.8051 -27.2921,36.0144 -28.6759,41.1942 -9.135,0 -15.4598,1.1622 -23.13,1.1344 -57.4367,-0.2176 -300.8828,37.6768 -312.2972,64.9742 -3.8729,9.2623 8.3164,29.3831 13.6647,33.9712 11.7394,10.069 23.8119,6.6777 38.7316,1.8017 34.6797,-11.3321 80.7405,-26.289 116.0265,-33.9658 33.9923,-7.3955 98.3297,-21.5935 129.5053,-21.5935 l -146.9473,165.1735 c -3.1538,2.9163 -5.0511,3.8649 -8.2951,7.1461 l -47.446,41.8894 -51.1862,39.2518 c -6.2253,4.2099 -11.3268,8.0735 -17.6503,12.1282 -12.3233,7.8997 -23.9486,15.343 -36.9472,22.6098 -26.3911,14.7513 -50.8147,26.906 -80.3809,38.733 -56.1404,22.4572 -129.4867,35.8194 -207.6267,24.7048 -66.0715,-9.3976 -131.0484,-38.9254 -163.8904,-80.9541 -17.9117,-22.9216 -31.4157,-42.5873 -38.2354,-74.2605 -15.4372,-71.6864 12.5501,-137.6505 53.2029,-191.8512 12.5382,-16.7176 20.4976,-24.6743 35.4094,-39.5875 l 23.2254,-20.8903 c 2.9522,-2.4957 5.6508,-4.5734 8.6348,-6.8064 l 25.8445,-18.2712 c 31.8483,-19.3407 33.8,-20.9288 69.6313,-35.1441 20.0239,-7.9448 31.4078,-7.7431 48.8524,-11.8084 2.4559,3.6686 5.1241,7.1434 7.3053,11.4529 5.0883,10.0557 5.1652,3.4589 11.4436,1.7832 9.9655,6.6724 1.6226,7.3092 -0.3277,12.9163 -1.9862,5.7091 5.0179,3.1458 -7.3704,12.4718 -1.8694,1.4064 -4.4434,3.0529 -6.338,4.6902 -8.7064,7.5242 1.4727,2.2648 -12.7505,9.3088 -3.2705,1.6186 -3.7959,2.8194 -7.4035,4.7286 2.5753,3.5147 1.8376,0.897 4.4129,4.4116 9.6591,-6.4694 8.6056,-7.2907 23.1101,-11.08 25.8896,-6.764 13.1657,5.1904 12.1826,8.8736 4.4394,-2.9734 3.7906,-5.1878 9.9257,-6.6167 2.4333,29.2491 0.1844,15.8883 -3.309,30.881 4.2868,-1.145 4.113,-3.098 7.7205,-5.5141 0.28,3.3674 1.3932,2.7371 1.2326,5.2421 -0.09,1.3931 -1.1291,1.1543 -1.2326,5.7862 5.3165,7.9395 10.617,3.0091 7.7206,15.4411 8.1107,0 11.4953,0.066 12.1322,7.7206 3.2002,-2.1441 4.6531,-3.4523 10.2654,-1.5099 4.0493,1.4011 5.6495,3.7668 9.586,4.8176 6.1192,-4.0971 2.103,-7.7192 12.1322,-7.7192 0.1075,4.7976 1.1026,6.0156 1.1026,12.1308 19.46,0 12.2184,-0.7443 10.1884,-10.1805 -0.6223,-2.8963 -0.2614,-6.6419 -0.2614,-9.6709 6.2319,-3.2984 6.3062,-2.5687 8.4954,-10.2535 2.5807,-9.0553 1.0111,-9.1057 0.3278,-17.3199 4.6729,1.2485 4.0931,3.2984 9.0712,2.4439 5.1838,-0.8889 5.1161,-1.34 11.8841,-1.34 l 11.0283,16.5424 c 12.0194,-25.0498 17.6463,-12.0817 17.6463,-36.3952 l 6.618,-3.3846 -3.0437,-1.0442 1.352,-15.4239 c -5.944,-2.4626 -9.4255,-4.8428 -12.6469,-10.0757 l -3.049,-0.9526 c 0.1738,-7.5707 5.1572,-6.1696 4.9768,-14.194 -0.1512,-6.6552 -3.0821,-10.7165 -0.2348,-17.1554 0.2759,-0.1048 0.6766,-0.1261 0.8743,-0.1446 0.1937,-0.0186 0.6249,-0.0969 0.8638,-0.1128 15.6839,-1.0734 6.2014,-4.1502 6.6233,-15.9852 8.7873,-1.9464 11.4794,-1.8071 16.1948,-7.7763 2.5859,-3.2732 2.3657,-3.6354 6.1457,-6.0064 4.044,-2.5381 5.3125,-1.7116 6.147,-5.9029 l -3.4788,-3.0808 c -10.0903,5.2329 -8.5592,-5.0047 -17.4155,-5.7423 0.1619,-7.2921 5.2939,-12.3485 8.7555,-16.5438 -1.6558,-3.9326 -3.5863,-6.7945 -6.5504,-8.9837 -1.4647,0.2136 -1.1025,0.5334 -1.1025,-0.942 -8.7754,0 -52.1548,-4.7406 -56.8676,-2.9004 -3.8928,1.5205 -9.7107,6.9935 -12.6151,9.5171 -13.4934,-9.0355 -7.9276,-29.2438 -20.0836,-40.5759 -5.0179,-4.677 -7.1461,-4.6425 -16.3129,-4.6425 -2.5925,9.7121 -7.6237,9.2425 -4.7459,23.4922 1.5762,7.8068 5.2222,16.4044 5.8485,23.9326 -36.5345,-19.3313 -97.3108,-12.6045 -135.4255,-1.9742 -46.9246,13.0874 -91.6201,38.6627 -130.0705,67.3492 -7.9329,5.9175 -14.8641,11.4887 -22.3684,17.3358 l -31.7023,27.8547 c -29.663,29.7625 -57.519,62.0022 -78.2183,100.4513 -32.83,60.9819 -41.0216,121.2925 -19.1163,193.7525 5.9586,19.7068 15.1134,38.2421 25.1546,54.2551 42.3498,67.5363 117.5708,107.7474 194.6029,123.0333 35.1944,6.9843 70.5521,10.1792 106.6713,11.3414 l 38.3349,-1.4409 c 23.0902,-3.1471 47.3439,-5.0749 69.7056,-9.7041 31.6055,-6.5437 61.4635,-15.6999 90.8466,-27.1647 23.4404,-9.1469 45.7915,-19.5649 68.4186,-30.8426 17.71,-8.8271 33.8783,-18.6799 50.7219,-28.6865 24.1595,-14.3546 47.6185,-30.9461 69.7639,-48.2474 16.6274,-12.9906 33.8371,-25.7146 49.2717,-40.0638 l 10.5865,-9.265 c 17.4579,-13.9737 50.1964,-48.0271 56.4283,-52.7585 l 94.4927,-104.0296 c 3.2957,-3.8995 5.4889,-7.174 8.8802,-10.9739 l 26.4018,-33.1539 c 4.8348,-6.1205 3.0158,-6.3778 13.5903,-6.2624 7.1819,0.078 10.6528,-1.1623 18.7635,-1.088 l 37.6423,-2.0631 c 10.682,-1.1995 28.1333,-0.1606 39.5437,-0.1606 0,12.5156 -3.2586,24.1038 -5.0498,36.8609 -5.4438,38.7662 -6.756,80.2682 -4.8574,119.7309 1.9969,41.5073 20.0624,90.994 45.355,124.4928 38.7396,51.3123 85.1627,75.2821 148.2449,84.4674 6.7255,0.9792 13.9672,0.4458 20.8452,1.2857 15.1812,1.8522 36.5717,-4.5628 48.68,-13.256 5.5486,-3.983 8.169,-4.7698 8.169,-13.8875 -4.592,-1.0707 -6.2067,-2.6124 -12.1972,-3.2427 -13.8331,-1.4568 -26.7746,-4.7724 -39.5038,-9.0248 -8.1133,-2.712 -14.9291,-5.5858 -22.5621,-9.4229 -37.6118,-18.9028 -60.0598,-44.3081 -77.5615,-83.4617 -6.5716,-14.7009 -11.6492,-31.0681 -15.1771,-48.7901 -3.4099,-17.1209 -6.2001,-39.2186 -6.155,-58.9174 0.024,-10.6608 0,-21.3242 0,-31.985 0,-20.885 2.1866,-39.7307 3.3409,-60.6277 0.5095,-9.2039 3.2771,-21.149 3.2771,-29.8103 10.5746,0 19.4442,2.9919 29.7414,2.1839 8.2155,-0.6448 18.5405,-4.6186 18.859,-13.2454 0.5625,-15.2421 -32.0075,-20.6515 -44.1888,-20.9234 0.1539,-6.9551 2.5475,-17.4818 3.78,-24.8946 14.6876,-88.3085 46.707,-193.5257 80.0294,-277.3125 6.2823,-15.7954 23.1724,-50.909 23.1724,-66.1631 -18.0882,-12.1122 -60.7418,-21.9252 -75.5939,-17.154 -3.7508,1.2047 -10.1805,4.8985 -12.8274,7.0399 -8.0749,6.5305 -12.4188,11.7594 -19.3977,19.2053 -31.7846,33.9088 -133.211,189.7098 -166.3622,239.5043 -4.6769,7.0253 -19.2557,30.8585 -24.7062,34.8508 -1.1503,-4.937 -3.0675,-9.4468 -8.8231,-9.9257 -0.9885,11.8707 -1.567,8.7183 4.4116,17.6463 z m 118.3417,47.1488 h -84.2511 l 117.6,-180.7885 z"
       style="display:inline;fill:#eb008b;fill-rule:evenodd"
       id="path1407" />
    <path
       d="m 1176.8178,1144.1165 h -19.8528 l -1.474,33.9578 c -1.0522,8.0669 -0.1659,2.9084 1.474,9.0554 h 18.7502 c 0,22.846 -3.309,43.4378 -3.309,68.3801 0,49.6313 83.2932,31.4091 86.0264,28.6746 l 7.7206,-40.8068 -3.5452,-3.0728 c -5.2395,2.2701 -29.5423,8.7674 -29.5423,-6.8542 l 1.1026,-46.3209 h 26.4708 c 2.6509,0 3.2413,-1.7872 5.5141,-3.309 0,-7.3531 0.019,-14.7088 0,-22.0619 -0.064,-20.751 8.1611,-17.6423 -29.7745,-17.6423 v -18.7502 c 0,-7.3345 1.1026,-9.5463 1.1026,-16.5438 -4.4116,-3.0649 -1.6492,-3.4855 -7.4327,-2.0976 -3.4496,0.8292 -6.4469,1.5987 -10.8465,2.5673 l -30.9434,6.5557 c -4.9914,0.8518 -8.2327,-2.9827 -8.1345,18.3362 0.024,4.9065 1.4661,9.9324 -3.3024,9.9324 z"
       style="display:inline;fill:#000000;fill-rule:evenodd"
       id="path1409" />
    <path
       d="m 394.8595,801.1133 c 0,10.3171 7.0691,16.5437 16.5437,16.5437 h 197.4197 c 4.9145,0 8.5087,-1.7673 11.2433,-4.198 10.6474,-9.4666 3.5717,-26.6844 -11.2433,-26.6844 H 409.1968 c -6.7627,0 -14.3373,7.5747 -14.3373,14.3387 z"
       style="display:inline;fill:#000000;fill-rule:evenodd"
       id="path1411" />
    <path
       d="m 416.9174,861.7728 c 0,11.2472 6.6936,17.6463 17.6463,17.6463 h 151.0975 c 22.9813,0 23.7614,-31.9849 0,-31.9849 H 434.5637 c -8.5844,0 -17.6463,5.9519 -17.6463,14.3386 z"
       style="display:inline;fill:#000000;fill-rule:evenodd"
       id="path1413" />
    <path
       d="m 437.8727,924.6375 c 0,6.2385 7.694,15.4411 15.4412,15.4411 h 113.5984 c 18.9598,0 18.9598,-30.881 0,-30.881 H 454.4164 c -4.8003,0 -8.6188,1.7885 -11.2551,4.1847 -1.9318,1.7567 -5.2886,8.2526 -5.2886,11.2552 z"
       style="fill:#000000;fill-rule:evenodd"
       id="path1415" />
    <path
       d="m 495.2232,159.2226 v 50.7338 c 0,20.751 29.7785,19.277 29.7785,2.2052 v -54.0415 c 0,-17.2443 -29.7785,-17.2072 -29.7785,1.1025 z"
       style="display:inline;fill:#fef001;fill-rule:evenodd"
       id="path1417" />
    <path
       d="m 158.8381,338.9961 c 0,7.2257 6.0767,11.3945 11.3786,13.9884 6.5225,3.1909 11.1317,6.1231 17.2973,9.1721 7.373,3.6473 27.3943,16.5437 35.2926,16.5437 10.4631,0 14.3373,-6.6857 14.3373,-15.4398 0,-9.0554 -17.0757,-15.4731 -27.5866,-20.9408 l -21.4064,-11.681 c -19.0633,-11.441 -29.3128,-1.4807 -29.3128,8.3574 z"
       style="fill:#fef001;fill-rule:evenodd"
       id="path1419" />
    <path
       d="m 783.0809,364.363 c 0,9.4202 6.8104,14.3373 16.5437,14.3373 3.9817,0 43.9871,-21.6134 49.8449,-25.152 8.0536,-4.8666 11.9185,-4.9502 11.9185,-15.6548 0,-9.0089 -10.0385,-14.2616 -17.6688,-12.2409 -6.8768,1.8203 -15.9918,8.0138 -22.0221,11.1516 -7.4313,3.869 -14.0056,7.5309 -21.7182,11.3706 -6.7666,3.3688 -16.898,8.0895 -16.898,16.1882 z"
       style="fill:#fef001;fill-rule:evenodd"
       id="path1421" />
    <path
       d="m 301.1125,207.7513 c 0,5.3324 14.535,25.7742 17.9979,31.632 8.9386,15.1162 13.8556,26.8211 26.1178,26.8211 7.9555,0 15.7344,-9.1588 13.4975,-16.7016 -1.3016,-4.3904 -21.831,-36.573 -24.5257,-40.6489 -4.2604,-6.4442 -7.0572,-15.4412 -17.6463,-15.4412 -8.5486,0 -15.4412,6.1271 -15.4412,14.3386 z"
       style="fill:#fef001;fill-rule:evenodd;stroke:#fef001;stroke-width:0.216;stroke-linecap:butt;stroke-linejoin:miter;stroke-dasharray:none"
       id="path1423" />
    <path
       d="m 661.7619,251.8671 c 0,13.5969 18.8961,22.1123 29.1562,4.8919 4.3081,-7.2297 28.1943,-42.9044 28.1943,-47.9051 0,-17.572 -19.4786,-21.4609 -29.3221,-5.0591 -3.3793,5.6296 -6.0926,10.2641 -9.7148,15.6522 -3.7349,5.5552 -18.3136,26.9484 -18.3136,32.4201 z"
       style="fill:#fef001;fill-rule:evenodd"
       id="path1425" />
    <path
       d="m 1332.3269,999.6356 h -1.1026 l 0.9195,1.287 z"
       style="fill:#730747;fill-rule:evenodd"
       id="path1427" />
    <path
       d="m 1123.2685,581.2627 c 0,-19.7453 24.539,-40.15 50.4632,-40.15 25.9241,0 40.3689,12.9442 43.4417,40.15 -31.1703,0 -56.7561,0 -93.9049,0 z"
       style="fill:none"
       id="path1429" />
    <path
       d="m 852.8369,552.3958 c 1.1729,58.1837 -4.8508,72.3751 -21.2963,94.4117 -16.4469,22.038 -42.391,36.9896 -70.8745,15.7318 -28.4862,-21.2592 -29.4309,-54.7739 -12.984,-76.8106 16.4443,-22.0353 50.4778,-33.2016 105.1548,-33.3329 z"
       style="fill:none"
       id="path1431" />
    <path
       d="m 1349.4232,1183.2754 a 23.2566,30.7165 0 0 1 23.2566,30.7165 23.2566,30.7165 0 1 1 -23.2566,-30.7165 z"
       style="fill:none"
       id="path1433" />
    <path
       d="M 3454.5824,55.2756 V 1.4173 h -53.8583 v -2.8346 h 56.6932 V 55.2756 Z M -1.4173,-1.4173 H 1.4173 55.2756 V 1.4173 H 1.4173 v 53.8583 h -2.8346 z m 3402.1414,1584 h 53.8583 v -53.8583 h 2.8349 v 56.6929 h -56.6932 z M 1.4173,1528.7244 v 53.8583 h 53.8583 v 2.8346 H -1.4173 v -56.6929 z"
       style="display:inline;fill:#000000;fill-rule:evenodd"
       id="path1435" />
  </g>
</svg>
